# 3ds Max Wavefront OBJ Exporter v0.97b - (c)2007 guruware
# File Created: 16.05.2012 15:12:08

#
# object Box021
#

v  -67.4312 105.4724 -560.6030
v  -65.0997 105.4724 -560.6030
v  65.0997 105.4724 -560.6030
v  67.4312 105.4724 -560.6030
v  -67.4312 119.4022 -560.6030
v  -65.0997 119.4022 -560.6030
v  65.0997 119.4022 -560.6030
v  67.4312 119.4022 -560.6030
v  -67.4312 105.4724 -557.2141
v  -65.0997 105.4724 -557.2141
v  65.0997 105.4724 -557.2141
v  67.4312 105.4724 -557.2141
v  -67.4312 119.4022 -557.2141
v  -65.0997 119.4022 -557.2141
v  65.0997 119.4022 -557.2141
v  67.4312 119.4022 -557.2141
v  -67.4311 106.7494 -550.5759
v  -65.0997 106.7494 -550.5759
v  -65.0997 118.1252 -550.5759
v  -67.4311 118.1252 -550.5759
v  65.0997 118.1252 -550.5759
v  65.0997 106.7494 -550.5759
v  67.4312 106.7494 -550.5759
v  67.4312 118.1252 -550.5759
v  -66.3952 115.7963 -556.2375
v  -66.3952 117.5290 -555.5198
v  -66.3952 118.2467 -553.7872
v  -66.3952 117.5290 -552.0544
v  -66.3952 115.7963 -551.3367
v  -66.3952 114.0636 -552.0544
v  -66.3952 113.3458 -553.7872
v  -66.3952 114.0636 -555.5198
v  65.6602 115.7963 -556.2375
v  65.6602 117.5290 -555.5198
v  65.6602 118.2467 -553.7872
v  65.6602 117.5290 -552.0544
v  65.6602 115.7963 -551.3367
v  65.6602 114.0636 -552.0544
v  65.6602 113.3458 -553.7872
v  65.6602 114.0636 -555.5198
v  -66.3952 109.6404 -556.2375
v  -66.3952 111.3731 -555.5198
v  65.6602 111.3731 -555.5198
v  65.6602 109.6404 -556.2375
v  -66.3952 112.0908 -553.7872
v  65.6602 112.0908 -553.7872
v  -66.3952 111.3731 -552.0544
v  65.6602 111.3731 -552.0544
v  -66.3952 109.6404 -551.3367
v  65.6602 109.6404 -551.3367
v  -66.3952 107.9077 -552.0544
v  65.6602 107.9077 -552.0544
v  -66.3952 107.1900 -553.7872
v  65.6602 107.1900 -553.7872
v  -66.3952 107.9077 -555.5198
v  65.6602 107.9077 -555.5198
# 56 vertices

vn -0.5774 0.5774 -0.5774
vn 0.0000 0.7071 -0.7071
vn 0.0000 -0.7071 -0.7071
vn 0.0000 -0.7071 -0.7071
vn -0.5774 -0.5774 -0.5774
vn -0.5774 0.5774 -0.5774
vn 0.0000 0.7071 -0.7071
vn 0.0000 0.7071 -0.7071
vn 0.0000 -0.7071 -0.7071
vn 0.0000 -0.7071 -0.7071
vn 0.0000 -0.7071 -0.7071
vn 0.0000 0.7071 -0.7071
vn 0.0000 0.7071 -0.7071
vn 0.5774 0.5774 -0.5774
vn 0.5774 -0.5774 -0.5774
vn 0.5774 -0.5774 -0.5774
vn 0.0000 -0.7071 -0.7071
vn 0.0000 0.7071 -0.7071
vn 0.5880 -0.5151 0.6236
vn 0.5880 0.5151 0.6236
vn -0.5880 0.5151 0.6236
vn -0.5880 0.5151 0.6236
vn -0.5880 -0.5151 0.6236
vn 0.5880 -0.5151 0.6236
vn -0.2641 -0.8959 0.3572
vn -0.2641 0.8959 0.3572
vn 0.2641 0.8959 0.3572
vn 0.2641 0.8959 0.3572
vn 0.2641 -0.8959 0.3572
vn -0.2641 -0.8959 0.3572
vn 0.5880 -0.5151 0.6236
vn 0.5880 0.5151 0.6236
vn -0.5880 0.5151 0.6236
vn -0.5880 0.5151 0.6236
vn -0.5880 -0.5151 0.6236
vn 0.5880 -0.5151 0.6236
vn 0.0000 -0.7071 -0.7071
vn 0.2641 -0.8959 0.3572
vn -0.6864 -0.7240 0.0690
vn -0.6864 -0.7240 0.0690
vn -0.5774 -0.5774 -0.5774
vn 0.0000 -0.7071 -0.7071
vn 0.0000 -0.7071 -0.7071
vn -0.2641 -0.8959 0.3572
vn 0.2641 -0.8959 0.3572
vn 0.2641 -0.8959 0.3572
vn 0.0000 -0.7071 -0.7071
vn 0.0000 -0.7071 -0.7071
vn 0.5774 -0.5774 -0.5774
vn 0.6864 -0.7240 0.0690
vn -0.2641 -0.8959 0.3572
vn -0.2641 -0.8959 0.3572
vn 0.0000 -0.7071 -0.7071
vn 0.5774 -0.5774 -0.5774
vn 0.5774 0.5774 -0.5774
vn 0.6864 0.7240 0.0690
vn 0.6864 -0.7240 0.0690
vn 0.6864 -0.7240 0.0690
vn 0.5774 -0.5774 -0.5774
vn 0.5774 0.5774 -0.5774
vn 0.0000 0.7071 -0.7071
vn -0.2641 0.8959 0.3572
vn 0.6864 0.7240 0.0690
vn 0.6864 0.7240 0.0690
vn 0.5774 0.5774 -0.5774
vn 0.0000 0.7071 -0.7071
vn 0.0000 0.7071 -0.7071
vn 0.2641 0.8959 0.3572
vn -0.2641 0.8959 0.3572
vn -0.2641 0.8959 0.3572
vn 0.0000 0.7071 -0.7071
vn 0.0000 0.7071 -0.7071
vn -0.5774 0.5774 -0.5774
vn -0.6864 0.7240 0.0690
vn 0.2641 0.8959 0.3572
vn 0.2641 0.8959 0.3572
vn 0.0000 0.7071 -0.7071
vn -0.5774 0.5774 -0.5774
vn -0.5774 -0.5774 -0.5774
vn -0.6864 -0.7240 0.0690
vn -0.6864 0.7240 0.0690
vn -0.6864 0.7240 0.0690
vn -0.5774 0.5774 -0.5774
vn -0.5774 -0.5774 -0.5774
vn 0.2641 -0.8959 0.3572
vn 0.5880 -0.5151 0.6236
vn -0.5880 -0.5151 0.6236
vn -0.5880 -0.5151 0.6236
vn -0.6864 -0.7240 0.0690
vn 0.2641 -0.8959 0.3572
vn 0.2641 0.8959 0.3572
vn 0.5880 0.5151 0.6236
vn 0.5880 -0.5151 0.6236
vn 0.5880 -0.5151 0.6236
vn 0.2641 -0.8959 0.3572
vn 0.2641 0.8959 0.3572
vn -0.6864 0.7240 0.0690
vn -0.5880 0.5151 0.6236
vn 0.5880 0.5151 0.6236
vn 0.5880 0.5151 0.6236
vn 0.2641 0.8959 0.3572
vn -0.6864 0.7240 0.0690
vn -0.6864 -0.7240 0.0690
vn -0.5880 -0.5151 0.6236
vn -0.5880 0.5151 0.6236
vn -0.5880 0.5151 0.6236
vn -0.6864 0.7240 0.0690
vn -0.6864 -0.7240 0.0690
vn -0.2641 -0.8959 0.3572
vn -0.5880 -0.5151 0.6236
vn -0.5880 0.5151 0.6236
vn -0.5880 0.5151 0.6236
vn -0.2641 0.8959 0.3572
vn -0.2641 -0.8959 0.3572
vn 0.6864 -0.7240 0.0690
vn 0.5880 -0.5151 0.6236
vn -0.5880 -0.5151 0.6236
vn -0.5880 -0.5151 0.6236
vn -0.2641 -0.8959 0.3572
vn 0.6864 -0.7240 0.0690
vn 0.6864 0.7240 0.0690
vn 0.5880 0.5151 0.6236
vn 0.5880 -0.5151 0.6236
vn 0.5880 -0.5151 0.6236
vn 0.6864 -0.7240 0.0690
vn 0.6864 0.7240 0.0690
vn -0.2641 0.8959 0.3572
vn -0.5880 0.5151 0.6236
vn 0.5880 0.5151 0.6236
vn 0.5880 0.5151 0.6236
vn 0.6864 0.7240 0.0690
vn -0.2641 0.8959 0.3572
vn 0.0000 0.7071 -0.7071
vn 0.0000 0.7071 -0.7071
vn 0.0000 -0.0000 -1.0000
vn 0.0000 -0.0000 -1.0000
vn 0.0000 -0.0000 -1.0000
vn 0.0000 0.7071 -0.7071
vn -0.0000 1.0000 -0.0000
vn -0.0000 1.0000 0.0000
vn 0.0000 0.7071 -0.7071
vn 0.0000 0.7071 -0.7071
vn 0.0000 0.7071 -0.7071
vn -0.0000 1.0000 -0.0000
vn -0.0000 0.7071 0.7071
vn -0.0000 0.7071 0.7071
vn -0.0000 1.0000 0.0000
vn -0.0000 1.0000 0.0000
vn -0.0000 1.0000 -0.0000
vn -0.0000 0.7071 0.7071
vn -0.0000 -0.0000 1.0000
vn -0.0000 -0.0000 1.0000
vn -0.0000 0.7071 0.7071
vn -0.0000 0.7071 0.7071
vn -0.0000 0.7071 0.7071
vn -0.0000 -0.0000 1.0000
vn -0.0000 -0.7071 0.7071
vn -0.0000 -0.7071 0.7071
vn -0.0000 -0.0000 1.0000
vn -0.0000 -0.0000 1.0000
vn -0.0000 -0.0000 1.0000
vn -0.0000 -0.7071 0.7071
vn 0.0000 -1.0000 -0.0000
vn -0.0000 -1.0000 0.0000
vn -0.0000 -0.7071 0.7071
vn -0.0000 -0.7071 0.7071
vn -0.0000 -0.7071 0.7071
vn 0.0000 -1.0000 -0.0000
vn 0.0000 -0.7071 -0.7071
vn 0.0000 -0.7071 -0.7071
vn -0.0000 -1.0000 0.0000
vn -0.0000 -1.0000 0.0000
vn 0.0000 -1.0000 -0.0000
vn 0.0000 -0.7071 -0.7071
vn 0.0000 -0.0000 -1.0000
vn 0.0000 -0.0000 -1.0000
vn 0.0000 -0.7071 -0.7071
vn 0.0000 -0.7071 -0.7071
vn 0.0000 -0.7071 -0.7071
vn 0.0000 -0.0000 -1.0000
vn 0.0000 0.7071 -0.7071
vn 0.0000 0.7071 -0.7071
vn 0.0000 0.0000 -1.0000
vn 0.0000 0.0000 -1.0000
vn 0.0000 0.0000 -1.0000
vn 0.0000 0.7071 -0.7071
vn -0.0000 1.0000 -0.0000
vn -0.0000 1.0000 0.0000
vn 0.0000 0.7071 -0.7071
vn 0.0000 0.7071 -0.7071
vn 0.0000 0.7071 -0.7071
vn -0.0000 1.0000 -0.0000
vn -0.0000 0.7071 0.7071
vn -0.0000 0.7071 0.7071
vn -0.0000 1.0000 0.0000
vn -0.0000 1.0000 0.0000
vn -0.0000 1.0000 -0.0000
vn -0.0000 0.7071 0.7071
vn -0.0000 0.0000 1.0000
vn -0.0000 0.0000 1.0000
vn -0.0000 0.7071 0.7071
vn -0.0000 0.7071 0.7071
vn -0.0000 0.7071 0.7071
vn -0.0000 0.0000 1.0000
vn -0.0000 -0.7071 0.7071
vn -0.0000 -0.7071 0.7071
vn -0.0000 0.0000 1.0000
vn -0.0000 0.0000 1.0000
vn -0.0000 0.0000 1.0000
vn -0.0000 -0.7071 0.7071
vn 0.0000 -1.0000 -0.0000
vn -0.0000 -1.0000 0.0000
vn -0.0000 -0.7071 0.7071
vn -0.0000 -0.7071 0.7071
vn -0.0000 -0.7071 0.7071
vn 0.0000 -1.0000 -0.0000
vn 0.0000 -0.7071 -0.7071
vn 0.0000 -0.7071 -0.7071
vn -0.0000 -1.0000 0.0000
vn -0.0000 -1.0000 0.0000
vn 0.0000 -1.0000 -0.0000
vn 0.0000 -0.7071 -0.7071
vn 0.0000 0.0000 -1.0000
vn 0.0000 0.0000 -1.0000
vn 0.0000 -0.7071 -0.7071
vn 0.0000 -0.7071 -0.7071
vn 0.0000 -0.7071 -0.7071
vn 0.0000 0.0000 -1.0000
# 228 vertex normals

vt 0.0187 0.9590 0.0000
vt 0.0187 0.8223 0.0000
vt 0.0309 0.8223 0.0000
vt 0.0309 0.9590 0.0000
vt 0.7113 0.8223 0.0000
vt 0.7113 0.9590 0.0000
vt 0.7235 0.8223 0.0000
vt 0.7235 0.9590 0.0000
vt 0.0241 0.4088 0.0000
vt 0.9893 0.3615 0.0000
vt 0.9763 0.3615 0.0000
vt 0.0363 0.4088 0.0000
vt 0.0363 0.4625 0.0000
vt 0.9763 0.2423 0.0000
vt 0.9893 0.2423 0.0000
vt 0.0241 0.4625 0.0000
vt 0.7289 0.7750 0.0000
vt 0.7167 0.7750 0.0000
vt 0.7167 0.7213 0.0000
vt 0.7289 0.7213 0.0000
vt 0.0363 0.7750 0.0000
vt 0.0363 0.7214 0.0000
vt 0.0241 0.7750 0.0000
vt 0.0241 0.7214 0.0000
vt 0.3401 0.6597 0.0000
vt 0.3401 0.5158 0.0000
vt 0.3911 0.5158 0.0000
vt 0.3911 0.6597 0.0000
vt 0.7167 0.4088 0.0000
vt 0.7167 0.4624 0.0000
vt 0.7289 0.4088 0.0000
vt 0.7289 0.4624 0.0000
vt 0.7289 0.5682 0.0000
vt 0.7167 0.5682 0.0000
vt 0.0363 0.5683 0.0000
vt 0.0241 0.5683 0.0000
vt 0.2889 0.5163 0.0000
vt 0.2889 0.6529 0.0000
vt 0.2353 0.6529 0.0000
vt 0.2353 0.5163 0.0000
vt 0.8630 0.3615 0.0000
vt 0.1344 0.3615 0.0000
vt 0.1344 0.2423 0.0000
vt 0.8630 0.2423 0.0000
vt 0.0211 0.3615 0.0000
vt 0.0080 0.3615 0.0000
vt 0.0080 0.2423 0.0000
vt 0.0211 0.2423 0.0000
vt 0.0134 0.0621 0.0000
vt 0.0134 0.0417 0.0000
vt 0.0134 0.2084 -0.0000
vt 0.0134 0.1801 0.0000
vt 0.0134 0.1597 0.0000
vt 0.0134 0.1392 0.0000
vt 0.0134 0.1109 0.0000
vt 0.0134 0.0826 0.0000
vt 0.7035 0.0622 0.0000
vt 0.7035 0.0417 0.0000
vt 0.7035 0.2084 0.0000
vt 0.7035 0.1801 0.0000
vt 0.7035 0.1597 0.0000
vt 0.7035 0.1392 0.0000
vt 0.7035 0.1109 0.0000
vt 0.7035 0.0826 0.0000
vt 0.0134 0.0134 -0.0000
vt 0.7035 0.0134 0.0000
vt 0.7167 0.6156 0.0000
vt 0.7289 0.6156 0.0000
vt 0.0241 0.6156 0.0000
vt 0.0363 0.6156 0.0000
vt 0.4909 0.5290 0.0000
vt 0.4909 0.6465 0.0000
vt 0.1302 0.6404 0.0000
vt 0.1302 0.5288 0.0000
vt 0.0134 0.0621 0.0000
vt 0.0134 0.0417 0.0000
vt 0.7035 0.0417 0.0000
vt 0.7035 0.0622 0.0000
vt 0.0134 0.0134 -0.0000
vt 0.7035 0.0134 0.0000
vt 0.0134 0.2084 -0.0000
vt 0.0134 0.1801 0.0000
vt 0.7035 0.1801 0.0000
vt 0.7035 0.2084 0.0000
vt 0.0134 0.1597 0.0000
vt 0.7035 0.1597 0.0000
vt 0.0134 0.1392 0.0000
vt 0.7035 0.1392 0.0000
vt 0.0134 0.1109 0.0000
vt 0.7035 0.1109 0.0000
vt 0.0134 0.0826 0.0000
vt 0.7035 0.0826 0.0000
# 92 texture coords

g Box021
f 5/2/1 6/3/2 2/4/3 
f 2/4/4 1/1/5 5/2/6 
f 6/3/7 7/5/8 3/6/9 
f 3/6/10 2/4/11 6/3/12 
f 7/5/13 8/7/14 4/8/15 
f 4/8/16 3/6/17 7/5/18 
f 18/11/19 19/14/20 20/15/21 
f 20/15/22 17/10/23 18/11/24 
f 11/42/25 15/43/26 14/44/27 
f 14/44/28 10/41/29 11/42/30 
f 23/46/31 24/47/32 21/48/33 
f 21/48/34 22/45/35 23/46/36 
f 2/18/37 10/19/38 9/20/39 
f 9/20/40 1/17/41 2/18/42 
f 3/21/43 11/22/44 10/19/45 
f 10/19/46 2/18/47 3/21/48 
f 4/23/49 12/24/50 11/22/51 
f 11/22/52 3/21/53 4/23/54 
f 8/26/55 16/27/56 12/28/57 
f 12/28/58 4/25/59 8/26/60 
f 7/12/61 15/13/62 16/16/63 
f 16/16/64 8/9/65 7/12/66 
f 6/29/67 14/30/68 15/13/69 
f 15/13/70 7/12/71 6/29/72 
f 5/31/73 13/32/74 14/30/75 
f 14/30/76 6/29/77 5/31/78 
f 1/38/79 9/39/80 13/40/81 
f 13/40/82 5/37/83 1/38/84 
f 10/19/85 18/67/86 17/68/87 
f 17/68/88 9/20/89 10/19/90 
f 14/44/91 19/14/92 18/11/93 
f 18/11/94 10/41/95 14/44/96 
f 13/32/97 20/33/98 19/34/99 
f 19/34/100 14/30/101 13/32/102 
f 9/39/103 17/73/104 20/74/105 
f 20/74/106 13/40/107 9/39/108 
f 11/42/109 22/45/110 21/48/111 
f 21/48/112 15/43/113 11/42/114 
f 12/24/115 23/69/116 22/70/117 
f 22/70/118 11/22/119 12/24/120 
f 16/27/121 24/71/122 23/72/123 
f 23/72/124 12/28/125 16/27/126 
f 15/13/127 21/35/128 24/36/129 
f 24/36/130 16/16/131 15/13/132 
f 26/50/133 34/58/134 33/57/135 
f 33/57/136 25/49/137 26/50/138 
f 27/65/139 35/66/140 34/58/141 
f 34/58/142 26/50/143 27/65/144 
f 28/52/145 36/60/146 35/59/147 
f 35/59/148 27/51/149 28/52/150 
f 29/53/151 37/61/152 36/60/153 
f 36/60/154 28/52/155 29/53/156 
f 30/54/157 38/62/158 37/61/159 
f 37/61/160 29/53/161 30/54/162 
f 31/55/163 39/63/164 38/62/165 
f 38/62/166 30/54/167 31/55/168 
f 32/56/169 40/64/170 39/63/171 
f 39/63/172 31/55/173 32/56/174 
f 25/49/175 33/57/176 40/64/177 
f 40/64/178 32/56/179 25/49/180 
f 42/76/181 43/77/182 44/78/183 
f 44/78/184 41/75/185 42/76/186 
f 45/79/187 46/80/188 43/77/189 
f 43/77/190 42/76/191 45/79/192 
f 47/82/193 48/83/194 46/84/195 
f 46/84/196 45/81/197 47/82/198 
f 49/85/199 50/86/200 48/83/201 
f 48/83/202 47/82/203 49/85/204 
f 51/87/205 52/88/206 50/86/207 
f 50/86/208 49/85/209 51/87/210 
f 53/89/211 54/90/212 52/88/213 
f 52/88/214 51/87/215 53/89/216 
f 55/91/217 56/92/218 54/90/219 
f 54/90/220 53/89/221 55/91/222 
f 41/75/223 44/78/224 56/92/225 
f 56/92/226 55/91/227 41/75/228 
# 76 faces

