# 3ds Max Wavefront OBJ Exporter v0.97b - (c)2007 guruware
# File Created: 25.08.2012 11:07:25

mtllib cont3.mtl

#
# object Cont3
#

v  202.8775 -11.9684 -189.4431
v  162.4741 -11.9684 -222.6012
v  199.2550 -63.9842 -185.8205
v  159.6279 -63.9842 -218.3414
v  188.5264 -114.0011 -175.0919
v  151.1986 -114.0011 -205.7260
v  137.5101 -160.0970 -185.2396
v  99.1827 -160.0970 -205.7259
v  86.4937 -200.5003 -175.0917
v  51.1263 -200.5003 -185.8202
v  71.0321 -233.6585 -137.7639
v  43.2441 -233.6585 -146.1932
v  188.5264 90.0643 -175.0919
v  219.1607 90.0643 -137.7641
v  231.7761 40.0474 -146.1935
v  255.9415 40.0474 -100.9834
v  260.6746 -11.9684 -102.9440
v  236.0358 -11.9684 -149.0398
v  231.7761 -63.9842 -146.1935
v  219.1607 -114.0011 -137.7641
v  198.6743 -160.0970 -124.0755
v  171.1042 -160.0970 -157.6696
v  147.6579 -200.5003 -134.2232
v  119.0884 -200.5003 -157.6695
v  96.6416 -233.6585 -124.0753
v  119.0885 -233.6585 -105.6537
v  86.4939 -258.2972 -73.0589
v  71.0322 -258.2972 -85.7480
v  53.3920 -258.2972 -95.1768
v  34.2514 -258.2972 -100.9830
v  14.3460 -258.2972 -102.9435
v  14.3460 -233.6585 -149.0393
v  14.3460 -200.5003 -189.4427
v  14.3460 -160.0970 -222.6009
v  57.5951 -160.0970 -218.3413
v  62.4018 -114.0011 -242.5066
v  108.6115 -114.0011 -228.4891
v  114.4177 -63.9842 -242.5067
v  65.3618 -63.9842 -257.3875
v  66.3613 -11.9684 -262.4122
v  116.3782 -11.9684 -247.2398
v  114.4177 40.0474 -242.5067
v  159.6279 40.0474 -218.3414
v  199.2550 40.0474 -185.8204
v  207.6738 97.9757 -121.1901
v  177.0395 97.9757 -158.5179
v  244.4546 47.9588 -84.4094
v  220.2892 47.9588 -129.6195
v  187.7681 47.9588 -169.2465
v  148.1410 47.9588 -201.7675
v  102.9308 47.9588 -225.9327
v  249.1877 -4.0570 -86.3700
v  224.5489 -4.0570 -132.4658
v  104.8913 -4.0570 -230.6658
v  54.8744 -4.0570 -245.8382
v  220.2892 -56.0728 -129.6196
v  102.9308 -56.0728 -225.9327
v  53.8749 -56.0728 -240.8135
v  207.6738 -106.0897 -121.1902
v  97.1246 -106.0897 -211.9152
v  50.9149 -106.0897 -225.9326
v  2.8591 -152.1856 -206.0269
v  187.1874 -152.1856 -107.5016
v  159.6173 -152.1856 -141.0957
v  46.1082 -152.1856 -201.7673
v  2.8591 -192.5889 -172.8687
v  136.1710 -192.5889 -117.6492
v  107.6015 -192.5889 -141.0956
v  2.8591 -225.7471 -132.4654
v  107.6016 -225.7471 -89.0797
v  85.1546 -225.7471 -107.5014
v  2.8591 -250.3858 -86.3695
v  75.0069 -250.3858 -56.4850
v  59.5452 -250.3858 -69.1740
v  41.9051 -250.3858 -78.6028
v  22.7645 -250.3858 -84.4090
# 76 vertices

vn 0.7194 0.1617 -0.6755
vn 0.7400 0.2890 -0.6073
vn 0.7400 0.2890 -0.6073
vn 0.7400 0.2890 -0.6073
vn 0.8029 0.1617 -0.5738
vn 0.7194 0.1617 -0.6755
vn 0.8124 0.0328 -0.5822
vn 0.8029 0.1617 -0.5738
vn 0.8777 0.0975 -0.4692
vn 0.8777 0.0975 -0.4692
vn 0.8777 0.0975 -0.4692
vn 0.8124 0.0328 -0.5822
vn 0.7071 0.0000 -0.7071
vn 0.7194 0.1617 -0.6755
vn 0.8029 0.1617 -0.5738
vn 0.8029 0.1617 -0.5738
vn 0.8124 0.0328 -0.5822
vn 0.7071 0.0000 -0.7071
vn 0.5556 0.0000 -0.8315
vn 0.5529 0.0980 -0.8275
vn 0.7194 0.1617 -0.6755
vn 0.7194 0.1617 -0.6755
vn 0.7071 0.0000 -0.7071
vn 0.5556 0.0000 -0.8315
vn 0.4126 -0.0328 -0.9103
vn 0.4691 0.0975 -0.8777
vn 0.5529 0.0980 -0.8275
vn 0.5529 0.0980 -0.8275
vn 0.5556 0.0000 -0.8315
vn 0.4126 -0.0328 -0.9103
vn 0.6937 -0.1939 -0.6937
vn 0.7071 0.0000 -0.7071
vn 0.8124 0.0328 -0.5822
vn 0.8124 0.0328 -0.5822
vn 0.7585 -0.1930 -0.6225
vn 0.6937 -0.1939 -0.6937
vn 0.5450 -0.1939 -0.8157
vn 0.5556 0.0000 -0.8315
vn 0.7071 0.0000 -0.7071
vn 0.7071 0.0000 -0.7071
vn 0.6937 -0.1939 -0.6937
vn 0.5450 -0.1939 -0.8157
vn 0.4061 -0.1617 -0.8994
vn 0.4126 -0.0328 -0.9103
vn 0.5556 0.0000 -0.8315
vn 0.5556 0.0000 -0.8315
vn 0.5450 -0.1939 -0.8157
vn 0.4061 -0.1617 -0.8994
vn 0.2889 -0.0975 -0.9524
vn 0.2889 -0.0975 -0.9524
vn 0.4126 -0.0328 -0.9103
vn 0.4126 -0.0328 -0.9103
vn 0.4061 -0.1617 -0.8994
vn 0.2889 -0.0975 -0.9524
vn 0.6539 -0.3805 -0.6539
vn 0.6937 -0.1939 -0.6937
vn 0.7585 -0.1930 -0.6225
vn 0.7585 -0.1930 -0.6225
vn 0.7154 -0.3790 -0.5871
vn 0.6539 -0.3805 -0.6539
vn 0.5138 -0.3805 -0.7689
vn 0.5450 -0.1939 -0.8157
vn 0.6937 -0.1939 -0.6937
vn 0.6937 -0.1939 -0.6937
vn 0.6539 -0.3805 -0.6539
vn 0.5138 -0.3805 -0.7689
vn 0.3788 -0.4107 -0.8294
vn 0.4061 -0.1617 -0.8994
vn 0.5450 -0.1939 -0.8157
vn 0.5450 -0.1939 -0.8157
vn 0.5138 -0.3805 -0.7689
vn 0.3788 -0.4107 -0.8294
vn 0.5842 -0.5253 -0.6186
vn 0.6539 -0.3805 -0.6539
vn 0.7154 -0.3790 -0.5871
vn 0.7154 -0.3790 -0.5871
vn 0.6825 -0.4696 -0.5601
vn 0.5842 -0.5253 -0.6186
vn 0.4630 -0.5528 -0.6929
vn 0.5138 -0.3805 -0.7689
vn 0.6539 -0.3805 -0.6539
vn 0.6539 -0.3805 -0.6539
vn 0.5842 -0.5253 -0.6186
vn 0.4630 -0.5528 -0.6929
vn 0.3189 -0.5528 -0.7699
vn 0.3788 -0.4107 -0.8294
vn 0.5138 -0.3805 -0.7689
vn 0.5138 -0.3805 -0.7689
vn 0.4630 -0.5528 -0.6929
vn 0.3189 -0.5528 -0.7699
vn 0.1887 -0.5798 -0.7926
vn 0.2563 -0.4696 -0.8448
vn 0.3788 -0.4107 -0.8294
vn 0.3788 -0.4107 -0.8294
vn 0.3189 -0.5528 -0.7699
vn 0.1887 -0.5798 -0.7926
vn 0.3905 -0.6806 -0.6199
vn 0.4630 -0.5528 -0.6929
vn 0.5842 -0.5253 -0.6186
vn 0.5842 -0.5253 -0.6186
vn 0.4913 -0.6326 -0.5987
vn 0.3905 -0.6806 -0.6199
vn 0.2718 -0.7041 -0.6561
vn 0.3189 -0.5528 -0.7699
vn 0.4630 -0.5528 -0.6929
vn 0.4630 -0.5528 -0.6929
vn 0.3905 -0.6806 -0.6199
vn 0.2718 -0.7041 -0.6561
vn 0.1385 -0.7041 -0.6965
vn 0.1887 -0.5798 -0.7926
vn 0.3189 -0.5528 -0.7699
vn 0.3189 -0.5528 -0.7699
vn 0.2718 -0.7041 -0.6561
vn 0.1385 -0.7041 -0.6965
vn 0.0698 -0.7023 -0.7084
vn 0.0759 -0.6326 -0.7708
vn 0.1887 -0.5798 -0.7926
vn 0.1887 -0.5798 -0.7926
vn 0.1385 -0.7041 -0.6965
vn 0.0698 -0.7023 -0.7084
vn 0.2142 -0.8286 -0.5172
vn 0.2718 -0.7041 -0.6561
vn 0.3905 -0.6806 -0.6199
vn 0.3905 -0.6806 -0.6199
vn 0.2768 -0.8466 -0.4546
vn 0.2142 -0.8286 -0.5172
vn 0.1092 -0.8286 -0.5490
vn 0.1385 -0.7041 -0.6965
vn 0.2718 -0.7041 -0.6561
vn 0.2718 -0.7041 -0.6561
vn 0.2142 -0.8286 -0.5172
vn 0.1092 -0.8286 -0.5490
vn 0.0550 -0.8274 -0.5589
vn 0.0698 -0.7023 -0.7084
vn 0.1385 -0.7041 -0.6965
vn 0.1385 -0.7041 -0.6965
vn 0.1092 -0.8286 -0.5490
vn 0.0550 -0.8274 -0.5589
vn 0.2619 -0.8819 -0.3920
vn 0.2768 -0.8466 -0.4546
vn 0.3002 -0.8810 -0.3658
vn 0.3002 -0.8810 -0.3658
vn 0.3002 -0.8810 -0.3658
vn 0.2619 -0.8819 -0.3920
vn 0.1804 -0.8819 -0.4355
vn 0.2142 -0.8286 -0.5172
vn 0.2768 -0.8466 -0.4546
vn 0.2768 -0.8466 -0.4546
vn 0.2619 -0.8819 -0.3920
vn 0.1804 -0.8819 -0.4355
vn 0.0920 -0.8819 -0.4623
vn 0.1092 -0.8286 -0.5490
vn 0.2142 -0.8286 -0.5172
vn 0.2142 -0.8286 -0.5172
vn 0.1804 -0.8819 -0.4355
vn 0.0920 -0.8819 -0.4623
vn 0.0464 -0.8810 -0.4709
vn 0.0550 -0.8274 -0.5589
vn 0.1092 -0.8286 -0.5490
vn 0.1092 -0.8286 -0.5490
vn 0.0920 -0.8819 -0.4623
vn 0.0464 -0.8810 -0.4709
vn 0.2920 0.9259 -0.2396
vn 0.2920 0.9259 -0.2396
vn 0.2920 0.9259 -0.2396
vn 0.2920 0.9259 -0.2396
vn 0.2920 0.9259 -0.2396
vn 0.2920 0.9259 -0.2396
vn 0.8423 0.1240 0.5246
vn 0.8423 0.1240 0.5246
vn 0.8423 0.1240 0.5246
vn 0.8423 0.1240 0.5246
vn 0.8423 0.1240 0.5246
vn 0.8423 0.1240 0.5246
vn 0.3558 0.9150 -0.1902
vn 0.3558 0.9150 -0.1902
vn 0.3558 0.9150 -0.1902
vn 0.3558 0.9150 -0.1902
vn 0.3558 0.9150 -0.1902
vn 0.3558 0.9150 -0.1902
vn 0.8328 0.0550 0.5509
vn 0.8328 0.0550 0.5509
vn 0.8328 0.0550 0.5509
vn 0.8328 0.0550 0.5509
vn 0.8328 0.0550 0.5509
vn 0.8328 0.0550 0.5509
vn -0.3558 -0.9150 0.1902
vn -0.3558 -0.9150 0.1902
vn -0.3558 -0.9150 0.1902
vn -0.3558 -0.9150 0.1902
vn -0.3558 -0.9150 0.1902
vn -0.3558 -0.9150 0.1902
vn 0.8135 -0.0349 0.5805
vn 0.8135 -0.0349 0.5805
vn 0.8135 -0.0349 0.5805
vn 0.8135 -0.0349 0.5805
vn 0.8135 -0.0349 0.5805
vn 0.8135 -0.0349 0.5805
vn 0.7949 -0.0996 0.5985
vn 0.7949 -0.0996 0.5985
vn 0.7949 -0.0996 0.5985
vn 0.7949 -0.0996 0.5985
vn 0.7949 -0.0996 0.5985
vn 0.7949 -0.0996 0.5985
vn 0.7733 -0.1616 0.6131
vn 0.7733 -0.1616 0.6131
vn 0.7733 -0.1616 0.6131
vn 0.7733 -0.1616 0.6131
vn 0.7733 -0.1616 0.6131
vn 0.7733 -0.1616 0.6131
vn -0.2920 -0.9259 0.2396
vn -0.2920 -0.9259 0.2396
vn -0.2920 -0.9259 0.2396
vn -0.2920 -0.9259 0.2396
vn -0.2920 -0.9259 0.2396
vn -0.2920 -0.9259 0.2396
vn 0.7914 -0.1104 0.6012
vn 0.7914 -0.1104 0.6012
vn 0.7914 -0.1104 0.6012
vn 0.7914 -0.1104 0.6012
vn 0.7914 -0.1104 0.6012
vn 0.7914 -0.1104 0.6012
vn -0.2324 -0.9305 0.2831
vn -0.2324 -0.9305 0.2831
vn -0.2324 -0.9305 0.2831
vn -0.2324 -0.9305 0.2831
vn -0.2324 -0.9305 0.2831
vn -0.2324 -0.9305 0.2831
vn 0.8249 0.0140 0.5650
vn 0.8249 0.0140 0.5650
vn 0.8249 0.0140 0.5650
vn 0.8249 0.0140 0.5650
vn 0.8249 0.0140 0.5650
vn 0.8249 0.0140 0.5650
vn 0.2324 0.9305 -0.2831
vn 0.2324 0.9305 -0.2831
vn 0.2324 0.9305 -0.2831
vn 0.2324 0.9305 -0.2831
vn 0.2324 0.9305 -0.2831
vn 0.2324 0.9305 -0.2831
vn 0.7623 -0.1897 0.6189
vn 0.7623 -0.1897 0.6189
vn 0.7623 -0.1897 0.6189
vn 0.7623 -0.1897 0.6189
vn 0.7623 -0.1897 0.6189
vn 0.7623 -0.1897 0.6189
vn -0.2324 -0.9305 0.2831
vn -0.2324 -0.9305 0.2831
vn -0.2324 -0.9305 0.2831
vn -0.2324 -0.9305 0.2831
vn -0.2324 -0.9305 0.2831
vn -0.2324 -0.9305 0.2831
vn -0.1732 -0.9301 0.3240
vn -0.1732 -0.9301 0.3240
vn -0.1732 -0.9301 0.3240
vn -0.1732 -0.9301 0.3240
vn -0.1732 -0.9301 0.3240
vn -0.1732 -0.9301 0.3240
vn -0.1106 -0.9245 0.3647
vn -0.1106 -0.9245 0.3647
vn -0.1106 -0.9245 0.3647
vn -0.1106 -0.9245 0.3647
vn -0.1106 -0.9245 0.3647
vn -0.1106 -0.9245 0.3647
vn -0.0401 -0.9123 0.4076
vn -0.0401 -0.9123 0.4076
vn -0.0401 -0.9123 0.4076
vn -0.0401 -0.9123 0.4076
vn -0.0401 -0.9123 0.4076
vn -0.0401 -0.9123 0.4076
vn -0.7898 -0.5410 -0.2892
vn -0.7898 -0.5410 -0.2892
vn -0.7898 -0.5410 -0.2892
vn -0.7898 -0.5410 -0.2892
vn -0.7898 -0.5410 -0.2892
vn -0.7898 -0.5410 -0.2892
vn -0.8228 -0.4393 -0.3605
vn -0.8228 -0.4393 -0.3605
vn -0.8228 -0.4393 -0.3605
vn -0.8228 -0.4393 -0.3605
vn -0.8228 -0.4393 -0.3605
vn -0.8228 -0.4393 -0.3605
vn -0.8407 -0.3436 -0.4186
vn -0.8407 -0.3436 -0.4186
vn -0.8407 -0.3436 -0.4186
vn -0.8407 -0.3436 -0.4186
vn -0.8407 -0.3436 -0.4186
vn -0.8407 -0.3436 -0.4186
vn 0.0401 0.9123 -0.4076
vn 0.0401 0.9123 -0.4076
vn 0.0401 0.9123 -0.4076
vn 0.0401 0.9123 -0.4076
vn 0.0401 0.9123 -0.4076
vn 0.0401 0.9123 -0.4076
vn -0.8464 -0.1754 -0.5029
vn -0.8464 -0.1754 -0.5029
vn -0.8464 -0.1754 -0.5029
vn -0.8464 -0.1754 -0.5029
vn -0.8464 -0.1754 -0.5029
vn -0.8464 -0.1754 -0.5029
vn 0.1106 0.9245 -0.3647
vn 0.1106 0.9245 -0.3647
vn 0.1106 0.9245 -0.3647
vn 0.1106 0.9245 -0.3647
vn 0.1106 0.9245 -0.3647
vn 0.1106 0.9245 -0.3647
vn -0.8332 -0.0574 -0.5500
vn -0.8332 -0.0574 -0.5500
vn -0.8332 -0.0574 -0.5500
vn -0.8332 -0.0574 -0.5500
vn -0.8332 -0.0574 -0.5500
vn -0.8332 -0.0574 -0.5500
vn -0.1106 -0.9245 0.3647
vn -0.1106 -0.9245 0.3647
vn -0.1106 -0.9245 0.3647
vn -0.1106 -0.9245 0.3647
vn -0.1106 -0.9245 0.3647
vn -0.1106 -0.9245 0.3647
vn -0.8297 -0.0379 -0.5570
vn -0.8297 -0.0379 -0.5570
vn -0.8297 -0.0379 -0.5570
vn -0.8297 -0.0379 -0.5570
vn -0.8297 -0.0379 -0.5570
vn -0.8297 -0.0379 -0.5570
vn 0.1106 0.9245 -0.3647
vn 0.1106 0.9245 -0.3647
vn 0.1106 0.9245 -0.3647
vn 0.1106 0.9245 -0.3647
vn 0.1106 0.9245 -0.3647
vn 0.1106 0.9245 -0.3647
vn -0.8168 0.0217 -0.5765
vn -0.8168 0.0217 -0.5765
vn -0.8168 0.0217 -0.5765
vn -0.8168 0.0217 -0.5765
vn -0.8168 0.0217 -0.5765
vn -0.8168 0.0217 -0.5765
vn 0.1732 0.9301 -0.3240
vn 0.1732 0.9301 -0.3240
vn 0.1732 0.9301 -0.3240
vn 0.1732 0.9301 -0.3240
vn 0.1732 0.9301 -0.3240
vn 0.1732 0.9301 -0.3240
vn 0.2324 0.9305 -0.2831
vn 0.2324 0.9305 -0.2831
vn 0.2324 0.9305 -0.2831
vn 0.2324 0.9305 -0.2831
vn 0.2324 0.9305 -0.2831
vn 0.2324 0.9305 -0.2831
vn -0.8338 -0.0612 -0.5487
vn -0.8338 -0.0612 -0.5487
vn -0.8338 -0.0612 -0.5487
vn -0.8338 -0.0612 -0.5487
vn -0.8338 -0.0612 -0.5487
vn -0.8338 -0.0612 -0.5487
# 354 vertex normals

vt 0.8438 0.5625 0.0000
vt 0.8750 0.5625 0.0000
vt 0.8438 0.5000 0.0000
vt 0.8750 0.5000 0.0000
vt 0.9063 0.5000 0.0000
vt 0.9375 0.5000 0.0000
vt 0.8750 0.4375 0.0000
vt 0.9063 0.4375 0.0000
vt 0.9375 0.4375 0.0000
vt 0.8750 0.3750 0.0000
vt 0.9063 0.3750 0.0000
vt 0.9375 0.3750 0.0000
vt 0.8750 0.3125 0.0000
vt 0.9063 0.3125 0.0000
vt 0.9375 0.3125 0.0000
vt 0.9688 0.3125 0.0000
vt 0.9063 0.2500 0.0000
vt 0.9375 0.2500 0.0000
vt 0.9688 0.2500 0.0000
vt 0.9063 0.1875 0.0000
vt 0.9375 0.1875 0.0000
vt 0.9688 0.1875 0.0000
vt 0.8750 0.6250 0.0000
vt 0.8438 0.6250 0.0000
vt 0.8438 0.5625 0.0000
vt 0.8125 0.5625 0.0000
vt 0.8125 0.5000 0.0000
vt 0.8438 0.5000 0.0000
vt 0.8438 0.4375 0.0000
vt 0.8438 0.3750 0.0000
vt 0.8438 0.3125 0.0000
vt 0.8750 0.3125 0.0000
vt 0.8750 0.2500 0.0000
vt 0.9063 0.2500 0.0000
vt 0.9063 0.1875 0.0000
vt 0.8750 0.1875 0.0000
vt 0.8750 0.1250 0.0000
vt 0.9063 0.1250 0.0000
vt 0.9375 0.1250 0.0000
vt 0.9688 0.1250 0.0000
vt 1.0000 0.1250 0.0000
vt 1.0000 0.1875 0.0000
vt 1.0000 0.2500 0.0000
vt 1.0000 0.3125 0.0000
vt 0.9688 0.3125 0.0000
vt 0.9688 0.3750 0.0000
vt 0.9375 0.3750 0.0000
vt 0.9375 0.4375 0.0000
vt 0.9688 0.4375 0.0000
vt 0.9688 0.5000 0.0000
vt 0.9375 0.5000 0.0000
vt 0.9375 0.5625 0.0000
vt 0.9063 0.5625 0.0000
vt 0.8750 0.5625 0.0000
vt 0.8438 0.6250 0.0000
vt 0.8750 0.6250 0.0000
vt 0.8125 0.5625 0.0000
vt 0.8438 0.5625 0.0000
vt 0.8750 0.5625 0.0000
vt 0.9063 0.5625 0.0000
vt 0.9375 0.5625 0.0000
vt 0.8125 0.5000 0.0000
vt 0.8438 0.5000 0.0000
vt 0.9375 0.5000 0.0000
vt 0.9688 0.5000 0.0000
vt 0.8438 0.4375 0.0000
vt 0.9375 0.4375 0.0000
vt 0.9688 0.4375 0.0000
vt 0.8438 0.3750 0.0000
vt 0.9375 0.3750 0.0000
vt 0.9688 0.3750 0.0000
vt 0.0000 0.3125 0.0000
vt 1.0000 0.3125 0.0000
vt 0.8438 0.3125 0.0000
vt 0.8750 0.3125 0.0000
vt 0.9688 0.3125 0.0000
vt 0.0000 0.2500 0.0000
vt 0.8750 0.2500 0.0000
vt 0.9063 0.2500 0.0000
vt 0.0000 0.1875 0.0000
vt 0.8750 0.1875 0.0000
vt 0.9063 0.1875 0.0000
vt 1.0000 0.1250 0.0000
vt 0.0000 0.1250 0.0000
vt 0.8750 0.1250 0.0000
vt 0.9063 0.1250 0.0000
vt 0.9375 0.1250 0.0000
vt 0.9688 0.1250 0.0000
# 88 texture coords

g Cont3
usemtl wire_028028177
s 1
f 44/54/1 13/23/2 14/24/3 
f 14/24/4 15/25/5 44/54/6 
f 18/28/7 15/25/8 16/26/9 
f 16/26/10 17/27/11 18/28/12 
f 1/4/13 44/2/14 15/1/15 
f 15/1/16 18/3/17 1/4/18 
f 2/5/19 43/53/20 44/54/21 
f 44/54/22 1/4/23 2/5/24 
f 41/51/25 42/52/26 43/53/27 
f 43/53/28 2/5/29 41/51/30 
f 3/7/31 1/4/32 18/28/33 
f 18/28/34 19/29/35 3/7/36 
f 4/8/37 2/5/38 1/4/39 
f 1/4/40 3/7/41 4/8/42 
f 38/9/43 41/6/44 2/5/45 
f 2/5/46 4/8/47 38/9/48 
f 39/49/49 40/50/50 41/51/51 
f 41/51/52 38/48/53 39/49/54 
f 5/10/55 3/7/56 19/29/57 
f 19/29/58 20/30/59 5/10/60 
f 6/11/61 4/8/62 3/7/63 
f 3/7/64 5/10/65 6/11/66 
f 37/47/67 38/48/68 4/8/69 
f 4/8/70 6/11/71 37/47/72 
f 22/32/73 5/10/74 20/30/75 
f 20/30/76 21/31/77 22/32/78 
f 7/14/79 6/11/80 5/10/81 
f 5/10/82 22/13/83 7/14/84 
f 8/15/85 37/12/86 6/11/87 
f 6/11/88 7/14/89 8/15/90 
f 35/45/91 36/46/92 37/47/93 
f 37/47/94 8/15/95 35/45/96 
f 24/34/97 7/14/98 22/32/99 
f 22/32/100 23/33/101 24/34/102 
f 9/18/103 8/15/104 7/14/105 
f 7/14/106 24/17/107 9/18/108 
f 10/19/109 35/16/110 8/15/111 
f 8/15/112 9/18/113 10/19/114 
f 33/43/115 34/44/116 35/45/117 
f 35/45/118 10/19/119 33/43/120 
f 11/21/121 9/18/122 24/34/123 
f 24/34/124 25/35/125 11/21/126 
f 12/22/127 10/19/128 9/18/129 
f 9/18/130 11/21/131 12/22/132 
f 32/42/133 33/43/134 10/19/135 
f 10/19/136 12/22/137 32/42/138 
f 28/38/139 25/35/140 26/36/141 
f 26/36/142 27/37/143 28/38/144 
f 29/39/145 11/21/146 25/20/147 
f 25/20/148 28/38/149 29/39/150 
f 30/40/151 12/22/152 11/21/153 
f 11/21/154 29/39/155 30/40/156 
f 31/41/157 32/42/158 12/22/159 
f 12/22/160 30/40/161 31/41/162 
s off
f 46/56/163 45/55/164 14/24/165 
f 14/24/166 13/23/167 46/56/168 
f 45/55/169 48/58/170 15/25/171 
f 15/25/172 14/24/173 45/55/174 
f 48/58/175 47/57/176 16/26/177 
f 16/26/178 15/25/179 48/58/180 
f 47/57/181 52/62/182 17/27/183 
f 17/27/184 16/26/185 47/57/186 
f 52/62/187 53/63/188 18/28/189 
f 18/28/190 17/27/191 52/62/192 
f 53/63/193 56/66/194 19/29/195 
f 19/29/196 18/28/197 53/63/198 
f 56/66/199 59/69/200 20/30/201 
f 20/30/202 19/29/203 56/66/204 
f 59/69/205 63/74/206 21/31/207 
f 21/31/208 20/30/209 59/69/210 
f 63/74/211 64/75/212 22/32/213 
f 22/32/214 21/31/215 63/74/216 
f 64/75/217 67/78/218 23/33/219 
f 23/33/220 22/32/221 64/75/222 
f 67/78/223 68/79/224 24/34/225 
f 24/34/226 23/33/227 67/78/228 
f 68/79/229 71/82/230 25/35/231 
f 25/35/232 24/34/233 68/79/234 
f 71/82/235 70/81/236 26/36/237 
f 26/36/238 25/35/239 71/82/240 
f 70/81/241 73/85/242 27/37/243 
f 27/37/244 26/36/245 70/81/246 
f 73/85/247 74/86/248 28/38/249 
f 28/38/250 27/37/251 73/85/252 
f 74/86/253 75/87/254 29/39/255 
f 29/39/256 28/38/257 74/86/258 
f 75/87/259 76/88/260 30/40/261 
f 30/40/262 29/39/263 75/87/264 
f 76/88/265 72/83/266 31/41/267 
f 31/41/268 30/40/269 76/88/270 
f 72/84/271 69/80/272 32/42/273 
f 32/42/274 31/41/275 72/84/276 
f 69/80/277 66/77/278 33/43/279 
f 33/43/280 32/42/281 69/80/282 
f 66/77/283 62/72/284 34/44/285 
f 34/44/286 33/43/287 66/77/288 
f 62/73/289 65/76/290 35/45/291 
f 35/45/292 34/44/293 62/73/294 
f 65/76/295 61/71/296 36/46/297 
f 36/46/298 35/45/299 65/76/300 
f 61/71/301 60/70/302 37/47/303 
f 37/47/304 36/46/305 61/71/306 
f 60/70/307 57/67/308 38/48/309 
f 38/48/310 37/47/311 60/70/312 
f 57/67/313 58/68/314 39/49/315 
f 39/49/316 38/48/317 57/67/318 
f 58/68/319 55/65/320 40/50/321 
f 40/50/322 39/49/323 58/68/324 
f 55/65/325 54/64/326 41/51/327 
f 41/51/328 40/50/329 55/65/330 
f 54/64/331 51/61/332 42/52/333 
f 42/52/334 41/51/335 54/64/336 
f 51/61/337 50/60/338 43/53/339 
f 43/53/340 42/52/341 51/61/342 
f 50/60/343 49/59/344 44/54/345 
f 44/54/346 43/53/347 50/60/348 
f 49/59/349 46/56/350 13/23/351 
f 13/23/352 44/54/353 49/59/354 
# 118 faces

