# 3ds Max Wavefront OBJ Exporter v0.97b - (c)2007 guruware
# File Created: 25.08.2012 11:07:34

mtllib cont4.mtl

#
# object Cont4
#

v  108.7536 99.2666 261.4718
v  151.3406 99.2666 238.7085
v  199.3970 49.2498 218.8028
v  203.0196 -2.7661 222.4254
v  114.5599 -54.7819 275.4893
v  159.7700 -54.7819 251.3239
v  108.7536 -104.7988 261.4718
v  147.7998 185.7658 167.2057
v  119.2303 185.7658 190.6522
v  137.6521 145.3625 218.2222
v  99.3248 145.3625 238.7086
v  57.7372 145.3625 251.3241
v  62.5440 99.2666 275.4893
v  65.5040 49.2498 290.3703
v  114.5599 49.2498 275.4893
v  159.7700 49.2498 251.3239
v  162.6163 -2.7661 255.5836
v  116.5204 -2.7661 280.2224
v  66.5035 -2.7661 295.3950
v  65.5040 -54.7819 290.3703
v  62.5440 -104.7988 275.4893
v  57.7372 -150.8947 251.3241
v  99.3248 -150.8947 238.7086
v  137.6521 -150.8947 218.2222
v  151.3406 -104.7988 238.7085
v  188.6684 -104.7988 208.0743
v  199.3970 -54.7819 218.8028
v  231.9180 -54.7819 179.1758
v  236.1777 -2.7661 182.0220
v  231.9180 49.2498 179.1758
v  219.3025 99.2666 170.7464
v  188.6684 99.2666 208.0743
v  171.2462 145.3625 190.6521
v  107.6020 184.4749 172.4216
v  136.1714 184.4749 148.9752
v  46.1089 144.0715 233.0935
v  87.6964 144.0715 220.4780
v  126.0237 144.0715 199.9916
v  159.6178 144.0715 172.4216
v  50.9157 97.9757 257.2588
v  177.0401 97.9757 189.8437
v  207.6742 97.9757 152.5159
v  53.8757 47.9588 272.1397
v  102.9315 47.9588 257.2588
v  148.1417 47.9588 233.0934
v  220.2896 47.9588 160.9452
v  54.8752 -4.0570 277.1644
v  104.8921 -4.0570 261.9919
v  150.9879 -4.0570 237.3531
v  224.5494 -4.0570 163.7915
v  53.8757 -56.0728 272.1398
v  187.7687 -56.0728 200.5723
v  220.2896 -56.0728 160.9452
v  50.9157 -106.0897 257.2588
v  139.7123 -106.0897 220.4780
v  177.0401 -106.0897 189.8438
v  46.1089 -152.1856 233.0935
v  87.6964 -152.1856 220.4780
v  126.0237 -152.1856 199.9916
# 59 vertices

vn 0.5294 0.5509 0.6451
vn 0.4913 0.6326 0.5987
vn 0.4913 0.6326 0.5987
vn 0.4913 0.6326 0.5987
vn 0.4928 0.5253 0.6937
vn 0.5294 0.5509 0.6451
vn 0.3539 0.3805 0.8544
vn 0.3375 0.4714 0.8148
vn 0.2563 0.4696 0.8448
vn 0.2563 0.4696 0.8448
vn 0.2686 0.3790 0.8856
vn 0.3539 0.3805 0.8544
vn 0.5138 0.3805 0.7689
vn 0.4928 0.5253 0.6937
vn 0.3375 0.4714 0.8148
vn 0.3375 0.4714 0.8148
vn 0.3539 0.3805 0.8544
vn 0.5138 0.3805 0.7689
vn 0.6421 0.3501 0.6820
vn 0.5294 0.5509 0.6451
vn 0.4928 0.5253 0.6937
vn 0.4928 0.5253 0.6937
vn 0.5138 0.3805 0.7689
vn 0.6421 0.3501 0.6820
vn 0.3662 0.2903 0.8841
vn 0.3539 0.3805 0.8544
vn 0.2686 0.3790 0.8856
vn 0.2686 0.3790 0.8856
vn 0.2779 0.2890 0.9161
vn 0.3662 0.2903 0.8841
vn 0.5686 0.2260 0.7910
vn 0.5138 0.3805 0.7689
vn 0.3539 0.3805 0.8544
vn 0.3539 0.3805 0.8544
vn 0.3662 0.2903 0.8841
vn 0.5686 0.2260 0.7910
vn 0.6937 0.1939 0.6937
vn 0.6421 0.3501 0.6820
vn 0.5138 0.3805 0.7689
vn 0.5138 0.3805 0.7689
vn 0.5686 0.2260 0.7910
vn 0.6937 0.1939 0.6937
vn 0.7585 0.1930 0.6225
vn 0.7400 0.2890 0.6073
vn 0.6421 0.3501 0.6820
vn 0.6421 0.3501 0.6820
vn 0.6937 0.1939 0.6937
vn 0.7585 0.1930 0.6225
vn 0.7071 0.0000 0.7071
vn 0.6937 0.1939 0.6937
vn 0.5686 0.2260 0.7910
vn 0.5686 0.2260 0.7910
vn 0.5822 -0.0328 0.8124
vn 0.7071 0.0000 0.7071
vn 0.7730 0.0000 0.6344
vn 0.7585 0.1930 0.6225
vn 0.6937 0.1939 0.6937
vn 0.6937 0.1939 0.6937
vn 0.7071 0.0000 0.7071
vn 0.7730 0.0000 0.6344
vn 0.3754 -0.1939 0.9063
vn 0.3808 -0.0980 0.9194
vn 0.2889 -0.0975 0.9524
vn 0.2889 -0.0975 0.9524
vn 0.2848 -0.1930 0.9389
vn 0.3754 -0.1939 0.9063
vn 0.5450 -0.1939 0.8157
vn 0.5822 -0.0328 0.8124
vn 0.3808 -0.0980 0.9194
vn 0.3808 -0.0980 0.9194
vn 0.3754 -0.1939 0.9063
vn 0.5450 -0.1939 0.8157
vn 0.6755 -0.1617 0.7194
vn 0.7071 0.0000 0.7071
vn 0.5822 -0.0328 0.8124
vn 0.5822 -0.0328 0.8124
vn 0.5450 -0.1939 0.8157
vn 0.6755 -0.1617 0.7194
vn 0.7693 -0.0975 0.6314
vn 0.7730 0.0000 0.6344
vn 0.7071 0.0000 0.7071
vn 0.7071 0.0000 0.7071
vn 0.6755 -0.1617 0.7194
vn 0.7693 -0.0975 0.6314
vn 0.3539 -0.3805 0.8544
vn 0.3754 -0.1939 0.9063
vn 0.2848 -0.1930 0.9389
vn 0.2848 -0.1930 0.9389
vn 0.2686 -0.3790 0.8856
vn 0.3539 -0.3805 0.8544
vn 0.4968 -0.3501 0.7941
vn 0.5450 -0.1939 0.8157
vn 0.3754 -0.1939 0.9063
vn 0.3754 -0.1939 0.9063
vn 0.3539 -0.3805 0.8544
vn 0.4968 -0.3501 0.7941
vn 0.6073 -0.2890 0.7400
vn 0.6755 -0.1617 0.7194
vn 0.5450 -0.1939 0.8157
vn 0.5450 -0.1939 0.8157
vn 0.4968 -0.3501 0.7941
vn 0.6073 -0.2890 0.7400
vn 0.3375 -0.4714 0.8148
vn 0.3539 -0.3805 0.8544
vn 0.2686 -0.3790 0.8856
vn 0.2686 -0.3790 0.8856
vn 0.2563 -0.4696 0.8448
vn 0.3375 -0.4714 0.8148
vn 0.4162 -0.4696 0.7786
vn 0.4968 -0.3501 0.7941
vn 0.3539 -0.3805 0.8544
vn 0.3539 -0.3805 0.8544
vn 0.3375 -0.4714 0.8148
vn 0.4162 -0.4696 0.7786
vn -0.0381 0.9982 -0.0464
vn -0.0381 0.9982 -0.0464
vn -0.0381 0.9982 -0.0464
vn -0.0381 0.9982 -0.0464
vn -0.0381 0.9982 -0.0464
vn -0.0381 0.9982 -0.0464
vn -0.8424 -0.0166 0.5385
vn -0.8424 -0.0166 0.5385
vn -0.8424 -0.0166 0.5385
vn -0.8424 -0.0166 0.5385
vn -0.8424 -0.0166 0.5385
vn -0.8424 -0.0166 0.5385
vn -0.0282 0.9982 -0.0527
vn -0.0282 0.9982 -0.0527
vn -0.0282 0.9982 -0.0527
vn -0.0282 0.9982 -0.0527
vn -0.0282 0.9982 -0.0527
vn -0.0282 0.9982 -0.0527
vn -0.0180 0.9981 -0.0592
vn -0.0180 0.9981 -0.0592
vn -0.0180 0.9981 -0.0592
vn -0.0180 0.9981 -0.0592
vn -0.0180 0.9981 -0.0592
vn -0.0180 0.9981 -0.0592
vn -0.8344 0.1851 0.5191
vn -0.8344 0.1851 0.5191
vn -0.8344 0.1851 0.5191
vn -0.8344 0.1851 0.5191
vn -0.8344 0.1851 0.5191
vn -0.8344 0.1851 0.5191
vn -0.8416 0.1076 0.5292
vn -0.8416 0.1076 0.5292
vn -0.8416 0.1076 0.5292
vn -0.8416 0.1076 0.5292
vn -0.8416 0.1076 0.5292
vn -0.8416 0.1076 0.5292
vn 0.0180 -0.9981 0.0592
vn 0.0180 -0.9981 0.0592
vn 0.0180 -0.9981 0.0592
vn 0.0180 -0.9981 0.0592
vn 0.0180 -0.9981 0.0592
vn 0.0180 -0.9981 0.0592
vn 0.0282 -0.9982 0.0527
vn 0.0282 -0.9982 0.0527
vn 0.0282 -0.9982 0.0527
vn 0.0282 -0.9982 0.0527
vn 0.0282 -0.9982 0.0527
vn 0.0282 -0.9982 0.0527
vn -0.8430 -0.0021 0.5379
vn -0.8430 -0.0021 0.5379
vn -0.8430 -0.0021 0.5379
vn -0.8430 -0.0021 0.5379
vn -0.8430 -0.0021 0.5379
vn -0.8430 -0.0021 0.5379
vn -0.0282 0.9982 -0.0527
vn -0.0282 0.9982 -0.0527
vn -0.0282 0.9982 -0.0527
vn -0.0282 0.9982 -0.0527
vn -0.0282 0.9982 -0.0527
vn -0.0282 0.9982 -0.0527
vn -0.0180 0.9981 -0.0592
vn -0.0180 0.9981 -0.0592
vn -0.0180 0.9981 -0.0592
vn -0.0180 0.9981 -0.0592
vn -0.0180 0.9981 -0.0592
vn -0.0180 0.9981 -0.0592
vn -0.8414 -0.0359 0.5392
vn -0.8414 -0.0359 0.5392
vn -0.8414 -0.0359 0.5392
vn -0.8414 -0.0359 0.5392
vn -0.8414 -0.0359 0.5392
vn -0.8414 -0.0359 0.5392
vn -0.8343 -0.1113 0.5400
vn -0.8343 -0.1113 0.5400
vn -0.8343 -0.1113 0.5400
vn -0.8343 -0.1113 0.5400
vn -0.8343 -0.1113 0.5400
vn -0.8343 -0.1113 0.5400
vn -0.8204 -0.1961 0.5372
vn -0.8204 -0.1961 0.5372
vn -0.8204 -0.1961 0.5372
vn -0.8204 -0.1961 0.5372
vn -0.8204 -0.1961 0.5372
vn -0.8204 -0.1961 0.5372
vn 0.0180 -0.9981 0.0592
vn 0.0180 -0.9981 0.0592
vn 0.0180 -0.9981 0.0592
vn 0.0180 -0.9981 0.0592
vn 0.0180 -0.9981 0.0592
vn 0.0180 -0.9981 0.0592
vn 0.0282 -0.9982 0.0527
vn 0.0282 -0.9982 0.0527
vn 0.0282 -0.9982 0.0527
vn 0.0282 -0.9982 0.0527
vn 0.0282 -0.9982 0.0527
vn 0.0282 -0.9982 0.0527
vn 0.8434 -0.0117 -0.5371
vn 0.8434 -0.0117 -0.5371
vn 0.8434 -0.0117 -0.5371
vn 0.8434 -0.0117 -0.5371
vn 0.8434 -0.0117 -0.5371
vn 0.8434 -0.0117 -0.5371
vn 0.0381 -0.9982 0.0464
vn 0.0381 -0.9982 0.0464
vn 0.0381 -0.9982 0.0464
vn 0.0381 -0.9982 0.0464
vn 0.0381 -0.9982 0.0464
vn 0.0381 -0.9982 0.0464
vn 0.8434 -0.0665 -0.5332
vn 0.8434 -0.0665 -0.5332
vn 0.8434 -0.0665 -0.5332
vn 0.8434 -0.0665 -0.5332
vn 0.8434 -0.0665 -0.5332
vn 0.8434 -0.0665 -0.5332
vn 0.0485 -0.9980 0.0398
vn 0.0485 -0.9980 0.0398
vn 0.0485 -0.9980 0.0398
vn 0.0485 -0.9980 0.0398
vn 0.0485 -0.9980 0.0398
vn 0.0485 -0.9980 0.0398
vn 0.8437 -0.0398 -0.5353
vn 0.8437 -0.0398 -0.5353
vn 0.8437 -0.0398 -0.5353
vn 0.8437 -0.0398 -0.5353
vn 0.8437 -0.0398 -0.5353
vn 0.8437 -0.0398 -0.5353
vn 0.8412 0.0394 -0.5393
vn 0.8412 0.0394 -0.5393
vn 0.8412 0.0394 -0.5393
vn 0.8412 0.0394 -0.5393
vn 0.8412 0.0394 -0.5393
vn 0.8412 0.0394 -0.5393
vn 0.8332 0.1192 -0.5399
vn 0.8332 0.1192 -0.5399
vn 0.8332 0.1192 -0.5399
vn 0.8332 0.1192 -0.5399
vn 0.8332 0.1192 -0.5399
vn 0.8332 0.1192 -0.5399
vn -0.0485 0.9980 -0.0398
vn -0.0485 0.9980 -0.0398
vn -0.0485 0.9980 -0.0398
vn -0.0485 0.9980 -0.0398
vn -0.0485 0.9980 -0.0398
vn -0.0485 0.9980 -0.0398
vn 0.8343 0.1112 -0.5400
vn 0.8343 0.1112 -0.5400
vn 0.8343 0.1112 -0.5400
vn 0.8343 0.1112 -0.5400
vn 0.8343 0.1112 -0.5400
vn 0.8343 0.1112 -0.5400
vn 0.8259 0.1667 -0.5386
vn 0.8259 0.1667 -0.5386
vn 0.8259 0.1667 -0.5386
vn 0.8259 0.1667 -0.5386
vn 0.8259 0.1667 -0.5386
vn 0.8259 0.1667 -0.5386
# 270 vertex normals

vt 0.5938 0.6875 0.0000
vt 0.5625 0.6250 0.0000
vt 0.5938 0.6250 0.0000
vt 0.6250 0.6250 0.0000
vt 0.5938 0.5625 0.0000
vt 0.6250 0.5625 0.0000
vt 0.5938 0.5000 0.0000
vt 0.6250 0.5000 0.0000
vt 0.5625 0.4375 0.0000
vt 0.5938 0.4375 0.0000
vt 0.6250 0.4375 0.0000
vt 0.5625 0.3750 0.0000
vt 0.5938 0.3750 0.0000
vt 0.6250 0.7500 0.0000
vt 0.5938 0.7500 0.0000
vt 0.5938 0.6875 0.0000
vt 0.5625 0.6875 0.0000
vt 0.5313 0.6875 0.0000
vt 0.5313 0.6250 0.0000
vt 0.5313 0.5625 0.0000
vt 0.5625 0.5625 0.0000
vt 0.5938 0.5625 0.0000
vt 0.5938 0.5000 0.0000
vt 0.5625 0.5000 0.0000
vt 0.5313 0.5000 0.0000
vt 0.5313 0.4375 0.0000
vt 0.5313 0.3750 0.0000
vt 0.5313 0.3125 0.0000
vt 0.5625 0.3125 0.0000
vt 0.5938 0.3125 0.0000
vt 0.5938 0.3750 0.0000
vt 0.6250 0.3750 0.0000
vt 0.6250 0.4375 0.0000
vt 0.6563 0.4375 0.0000
vt 0.6563 0.5000 0.0000
vt 0.6563 0.5625 0.0000
vt 0.6563 0.6250 0.0000
vt 0.6250 0.6250 0.0000
vt 0.6250 0.6875 0.0000
vt 0.5938 0.7500 0.0000
vt 0.6250 0.7500 0.0000
vt 0.5313 0.6875 0.0000
vt 0.5625 0.6875 0.0000
vt 0.5938 0.6875 0.0000
vt 0.6250 0.6875 0.0000
vt 0.5313 0.6250 0.0000
vt 0.6250 0.6250 0.0000
vt 0.6563 0.6250 0.0000
vt 0.5313 0.5625 0.0000
vt 0.5625 0.5625 0.0000
vt 0.5938 0.5625 0.0000
vt 0.6563 0.5625 0.0000
vt 0.5313 0.5000 0.0000
vt 0.5625 0.5000 0.0000
vt 0.5938 0.5000 0.0000
vt 0.6563 0.5000 0.0000
vt 0.5313 0.4375 0.0000
vt 0.6250 0.4375 0.0000
vt 0.6563 0.4375 0.0000
vt 0.5313 0.3750 0.0000
vt 0.5938 0.3750 0.0000
vt 0.6250 0.3750 0.0000
vt 0.5313 0.3125 0.0000
vt 0.5625 0.3125 0.0000
vt 0.5938 0.3125 0.0000
# 65 texture coords

g Cont4
usemtl wire_028028177
s 1
f 33/39/1 8/14/2 9/15/3 
f 9/15/4 10/16/5 33/39/6 
f 1/2/7 11/17/8 12/18/9 
f 12/18/10 13/19/11 1/2/12 
f 2/3/13 10/16/14 11/17/15 
f 11/17/16 1/2/17 2/3/18 
f 32/38/19 33/39/20 10/1/21 
f 10/1/22 2/3/23 32/38/24 
f 15/21/25 1/2/26 13/19/27 
f 13/19/28 14/20/29 15/21/30 
f 16/22/31 2/3/32 1/2/33 
f 1/2/34 15/21/35 16/22/36 
f 3/6/37 32/4/38 2/3/39 
f 2/3/40 16/5/41 3/6/42 
f 30/36/43 31/37/44 32/38/45 
f 32/38/46 3/6/47 30/36/48 
f 4/8/49 3/6/50 16/22/51 
f 16/22/52 17/23/53 4/8/54 
f 29/35/55 30/36/56 3/6/57 
f 3/6/58 4/8/59 29/35/60 
f 5/9/61 18/24/62 19/25/63 
f 19/25/64 20/26/65 5/9/66 
f 6/10/67 17/23/68 18/24/69 
f 18/24/70 5/9/71 6/10/72 
f 27/11/73 4/8/74 17/7/75 
f 17/7/76 6/10/77 27/11/78 
f 28/34/79 29/35/80 4/8/81 
f 4/8/82 27/33/83 28/34/84 
f 7/12/85 5/9/86 20/26/87 
f 20/26/88 21/27/89 7/12/90 
f 25/13/91 6/10/92 5/9/93 
f 5/9/94 7/12/95 25/13/96 
f 26/32/97 27/33/98 6/10/99 
f 6/10/100 25/31/101 26/32/102 
f 23/29/103 7/12/104 21/27/105 
f 21/27/106 22/28/107 23/29/108 
f 24/30/109 25/31/110 7/12/111 
f 7/12/112 23/29/113 24/30/114 
s off
f 35/41/115 34/40/116 9/15/117 
f 9/15/118 8/14/119 35/41/120 
f 34/40/121 38/44/122 10/16/123 
f 10/16/124 9/15/125 34/40/126 
f 38/44/127 37/43/128 11/17/129 
f 11/17/130 10/16/131 38/44/132 
f 37/43/133 36/42/134 12/18/135 
f 12/18/136 11/17/137 37/43/138 
f 36/42/139 40/46/140 13/19/141 
f 13/19/142 12/18/143 36/42/144 
f 40/46/145 43/49/146 14/20/147 
f 14/20/148 13/19/149 40/46/150 
f 43/49/151 44/50/152 15/21/153 
f 15/21/154 14/20/155 43/49/156 
f 44/50/157 45/51/158 16/22/159 
f 16/22/160 15/21/161 44/50/162 
f 45/51/163 49/55/164 17/23/165 
f 17/23/166 16/22/167 45/51/168 
f 49/55/169 48/54/170 18/24/171 
f 18/24/172 17/23/173 49/55/174 
f 48/54/175 47/53/176 19/25/177 
f 19/25/178 18/24/179 48/54/180 
f 47/53/181 51/57/182 20/26/183 
f 20/26/184 19/25/185 47/53/186 
f 51/57/187 54/60/188 21/27/189 
f 21/27/190 20/26/191 51/57/192 
f 54/60/193 57/63/194 22/28/195 
f 22/28/196 21/27/197 54/60/198 
f 57/63/199 58/64/200 23/29/201 
f 23/29/202 22/28/203 57/63/204 
f 58/64/205 59/65/206 24/30/207 
f 24/30/208 23/29/209 58/64/210 
f 59/65/211 55/61/212 25/31/213 
f 25/31/214 24/30/215 59/65/216 
f 55/61/217 56/62/218 26/32/219 
f 26/32/220 25/31/221 55/61/222 
f 56/62/223 52/58/224 27/33/225 
f 27/33/226 26/32/227 56/62/228 
f 52/58/229 53/59/230 28/34/231 
f 28/34/232 27/33/233 52/58/234 
f 53/59/235 50/56/236 29/35/237 
f 29/35/238 28/34/239 53/59/240 
f 50/56/241 46/52/242 30/36/243 
f 30/36/244 29/35/245 50/56/246 
f 46/52/247 42/48/248 31/37/249 
f 31/37/250 30/36/251 46/52/252 
f 42/48/253 41/47/254 32/38/255 
f 32/38/256 31/37/257 42/48/258 
f 41/47/259 39/45/260 33/39/261 
f 33/39/262 32/38/263 41/47/264 
f 39/45/265 35/41/266 8/14/267 
f 8/14/268 33/39/269 39/45/270 
# 90 faces

