# 3ds Max Wavefront OBJ Exporter v0.97b - (c)2007 guruware
# File Created: 26.08.2012 12:27:39

mtllib flag4.mtl

#
# object Cylinder2
#

v  152.3128 -63.5914 -195.5608
v  147.3833 -63.8461 -199.1749
v  147.8607 -61.7829 -199.3470
v  148.8751 -59.9378 -199.0623
v  150.3041 -58.5335 -198.3553
v  151.9754 -57.7392 -197.3113
v  153.6874 -57.6507 -196.0561
v  155.2336 -58.2789 -194.7412
v  156.4275 -59.5477 -193.5252
v  157.1251 -61.3043 -192.5547
v  157.2423 -63.3368 -191.9467
v  156.7649 -65.4000 -191.7747
v  155.7505 -67.2450 -192.0594
v  154.3214 -68.6494 -192.7664
v  152.6501 -69.4437 -193.8104
v  150.9381 -69.5321 -195.0656
v  149.3919 -68.9040 -196.3805
v  148.1980 -67.6351 -197.5965
v  147.5004 -65.8785 -198.5670
v  507.5447 -187.4146 -681.7088
v  508.0221 -185.3514 -681.8809
v  509.0365 -183.5063 -681.5962
v  510.4655 -182.1020 -680.8892
v  512.1368 -181.3077 -679.8452
v  513.8489 -181.2192 -678.5900
v  515.3950 -181.8474 -677.2751
v  516.5889 -183.1162 -676.0590
v  517.2865 -184.8728 -675.0885
v  517.4037 -186.9053 -674.4806
v  516.9263 -188.9685 -674.3086
v  515.9119 -190.8135 -674.5933
v  514.4828 -192.2179 -675.3002
v  512.8115 -193.0122 -676.3442
v  511.0995 -193.1006 -677.5994
v  509.5533 -192.4725 -678.9143
v  508.3594 -191.2036 -680.1304
v  507.6618 -189.4470 -681.1009
v  512.4742 -187.1599 -678.0947
# 38 vertices

vn -0.5859 0.2010 0.7850
vn -0.5859 0.2010 0.7850
vn -0.5859 0.2010 0.7850
vn -0.5859 0.2010 0.7850
vn -0.5859 0.2010 0.7850
vn -0.5859 0.2010 0.7850
vn -0.5859 0.2010 0.7850
vn -0.5859 0.2010 0.7850
vn -0.5859 0.2010 0.7850
vn -0.5859 0.2010 0.7850
vn -0.5859 0.2010 0.7850
vn -0.5859 0.2010 0.7850
vn -0.5859 0.2010 0.7850
vn -0.5859 0.2010 0.7850
vn -0.5859 0.2010 0.7850
vn -0.5859 0.2010 0.7850
vn -0.5859 0.2010 0.7850
vn -0.5859 0.2010 0.7850
vn -0.5859 0.2010 0.7850
vn -0.5859 0.2010 0.7850
vn -0.5859 0.2010 0.7850
vn -0.5859 0.2010 0.7850
vn -0.5859 0.2010 0.7850
vn -0.5859 0.2010 0.7850
vn -0.5859 0.2010 0.7850
vn -0.5859 0.2010 0.7850
vn -0.5859 0.2010 0.7850
vn -0.5859 0.2010 0.7850
vn -0.5859 0.2010 0.7850
vn -0.5859 0.2010 0.7850
vn -0.5859 0.2010 0.7850
vn -0.5859 0.2010 0.7850
vn -0.5859 0.2010 0.7850
vn -0.5859 0.2010 0.7850
vn -0.5859 0.2010 0.7850
vn -0.5859 0.2010 0.7850
vn -0.5859 0.2010 0.7850
vn -0.5859 0.2010 0.7850
vn -0.5859 0.2010 0.7850
vn -0.5859 0.2010 0.7850
vn -0.5859 0.2010 0.7850
vn -0.5859 0.2010 0.7850
vn -0.5859 0.2010 0.7850
vn -0.5859 0.2010 0.7850
vn -0.5859 0.2010 0.7850
vn -0.5859 0.2010 0.7850
vn -0.5859 0.2010 0.7850
vn -0.5859 0.2010 0.7850
vn -0.5859 0.2010 0.7850
vn -0.5859 0.2010 0.7850
vn -0.5859 0.2010 0.7850
vn -0.5859 0.2010 0.7850
vn -0.5859 0.2010 0.7850
vn -0.5859 0.2010 0.7850
vn -0.8058 -0.0416 -0.5908
vn -0.7277 0.2956 -0.6189
vn -0.8058 -0.0416 -0.5908
vn -0.8058 -0.0416 -0.5908
vn -0.7277 0.2956 -0.6189
vn -0.7277 0.2956 -0.6189
vn -0.7277 0.2956 -0.6189
vn -0.5619 0.5972 -0.5723
vn -0.7277 0.2956 -0.6189
vn -0.7277 0.2956 -0.6189
vn -0.5619 0.5972 -0.5723
vn -0.5619 0.5972 -0.5723
vn -0.5619 0.5972 -0.5723
vn -0.3283 0.8268 -0.4568
vn -0.5619 0.5972 -0.5723
vn -0.5619 0.5972 -0.5723
vn -0.3283 0.8268 -0.4568
vn -0.3283 0.8268 -0.4568
vn -0.3283 0.8268 -0.4568
vn -0.0551 0.9566 -0.2861
vn -0.3283 0.8268 -0.4568
vn -0.3283 0.8268 -0.4568
vn -0.0551 0.9566 -0.2861
vn -0.0551 0.9566 -0.2861
vn -0.0551 0.9566 -0.2861
vn 0.2247 0.9711 -0.0810
vn -0.0551 0.9566 -0.2861
vn -0.0551 0.9566 -0.2861
vn 0.2247 0.9711 -0.0810
vn 0.2247 0.9711 -0.0810
vn 0.2247 0.9711 -0.0810
vn 0.4774 0.8684 0.1340
vn 0.2247 0.9711 -0.0810
vn 0.2247 0.9711 -0.0810
vn 0.4774 0.8684 0.1340
vn 0.4774 0.8684 0.1340
vn 0.4774 0.8684 0.1340
vn 0.6726 0.6610 0.3327
vn 0.4774 0.8684 0.1340
vn 0.4774 0.8684 0.1340
vn 0.6726 0.6610 0.3327
vn 0.6726 0.6610 0.3327
vn 0.6726 0.6610 0.3327
vn 0.7866 0.3738 0.4914
vn 0.6726 0.6610 0.3327
vn 0.6726 0.6610 0.3327
vn 0.7866 0.3738 0.4914
vn 0.7866 0.3738 0.4914
vn 0.7866 0.3738 0.4914
vn 0.8058 0.0416 0.5908
vn 0.7866 0.3738 0.4914
vn 0.7866 0.3738 0.4914
vn 0.8058 0.0416 0.5908
vn 0.8058 0.0416 0.5908
vn 0.8058 0.0416 0.5908
vn 0.7277 -0.2956 0.6189
vn 0.8058 0.0416 0.5908
vn 0.8058 0.0416 0.5908
vn 0.7277 -0.2956 0.6189
vn 0.7277 -0.2956 0.6189
vn 0.7277 -0.2956 0.6189
vn 0.5619 -0.5972 0.5723
vn 0.7277 -0.2956 0.6189
vn 0.7277 -0.2956 0.6189
vn 0.5619 -0.5972 0.5723
vn 0.5619 -0.5972 0.5723
vn 0.5619 -0.5972 0.5723
vn 0.3283 -0.8268 0.4568
vn 0.5619 -0.5972 0.5723
vn 0.5619 -0.5972 0.5723
vn 0.3283 -0.8268 0.4568
vn 0.3283 -0.8268 0.4568
vn 0.3283 -0.8268 0.4568
vn 0.0551 -0.9566 0.2861
vn 0.3283 -0.8268 0.4568
vn 0.3283 -0.8268 0.4568
vn 0.0551 -0.9566 0.2861
vn 0.0551 -0.9566 0.2861
vn 0.0551 -0.9566 0.2861
vn -0.2247 -0.9711 0.0810
vn 0.0551 -0.9566 0.2861
vn 0.0551 -0.9566 0.2861
vn -0.2247 -0.9711 0.0810
vn -0.2247 -0.9711 0.0810
vn -0.2247 -0.9711 0.0810
vn -0.4774 -0.8684 -0.1340
vn -0.2247 -0.9711 0.0810
vn -0.2247 -0.9711 0.0810
vn -0.4774 -0.8684 -0.1340
vn -0.4774 -0.8684 -0.1340
vn -0.4774 -0.8684 -0.1340
vn -0.6726 -0.6610 -0.3327
vn -0.4774 -0.8684 -0.1340
vn -0.4774 -0.8684 -0.1340
vn -0.6726 -0.6610 -0.3327
vn -0.6726 -0.6610 -0.3327
vn -0.6726 -0.6610 -0.3327
vn -0.7866 -0.3738 -0.4914
vn -0.6726 -0.6610 -0.3327
vn -0.6726 -0.6610 -0.3327
vn -0.7866 -0.3738 -0.4914
vn -0.7866 -0.3738 -0.4914
vn -0.7866 -0.3738 -0.4914
vn -0.8058 -0.0416 -0.5908
vn -0.7866 -0.3738 -0.4914
vn -0.7866 -0.3738 -0.4914
vn -0.8058 -0.0416 -0.5908
vn -0.8058 -0.0416 -0.5908
vn 0.5859 -0.2010 -0.7850
vn 0.5859 -0.2010 -0.7850
vn 0.5859 -0.2010 -0.7850
vn 0.5859 -0.2010 -0.7850
vn 0.5859 -0.2010 -0.7850
vn 0.5859 -0.2010 -0.7850
vn 0.5859 -0.2010 -0.7850
vn 0.5859 -0.2010 -0.7850
vn 0.5859 -0.2010 -0.7850
vn 0.5859 -0.2010 -0.7850
vn 0.5859 -0.2010 -0.7850
vn 0.5859 -0.2010 -0.7850
vn 0.5859 -0.2010 -0.7850
vn 0.5859 -0.2010 -0.7850
vn 0.5859 -0.2010 -0.7850
vn 0.5859 -0.2010 -0.7850
vn 0.5859 -0.2010 -0.7850
vn 0.5859 -0.2010 -0.7850
vn 0.5859 -0.2010 -0.7850
vn 0.5859 -0.2010 -0.7850
vn 0.5859 -0.2010 -0.7850
vn 0.5859 -0.2010 -0.7850
vn 0.5859 -0.2010 -0.7850
vn 0.5859 -0.2010 -0.7850
vn 0.5859 -0.2010 -0.7850
vn 0.5859 -0.2010 -0.7850
vn 0.5859 -0.2010 -0.7850
vn 0.5859 -0.2010 -0.7850
vn 0.5859 -0.2010 -0.7850
vn 0.5859 -0.2010 -0.7850
vn 0.5859 -0.2010 -0.7850
vn 0.5859 -0.2010 -0.7850
vn 0.5859 -0.2010 -0.7850
vn 0.5859 -0.2010 -0.7850
vn 0.5859 -0.2010 -0.7850
vn 0.5859 -0.2010 -0.7850
vn 0.5859 -0.2010 -0.7850
vn 0.5859 -0.2010 -0.7850
vn 0.5859 -0.2010 -0.7850
vn 0.5859 -0.2010 -0.7850
vn 0.5859 -0.2010 -0.7850
vn 0.5859 -0.2010 -0.7850
vn 0.5859 -0.2010 -0.7850
vn 0.5859 -0.2010 -0.7850
vn 0.5859 -0.2010 -0.7850
vn 0.5859 -0.2010 -0.7850
vn 0.5859 -0.2010 -0.7850
vn 0.5859 -0.2010 -0.7850
vn 0.5859 -0.2010 -0.7850
vn 0.5859 -0.2010 -0.7850
vn 0.5859 -0.2010 -0.7850
vn 0.5859 -0.2010 -0.7850
vn 0.5859 -0.2010 -0.7850
vn 0.5859 -0.2010 -0.7850
# 216 vertex normals

vt 0.5000 0.0000 0.0000
vt 0.7500 0.0000 1.0000
vt 0.8056 0.0000 1.0000
vt 0.8611 0.0000 1.0000
vt 0.9167 0.0000 1.0000
vt 0.9722 0.0000 1.0000
vt 0.0278 0.0000 1.0000
vt 0.0833 0.0000 1.0000
vt 0.1389 0.0000 1.0000
vt 0.1944 0.0000 1.0000
vt 0.2500 0.0000 1.0000
vt 0.3056 0.0000 1.0000
vt 0.3611 0.0000 1.0000
vt 0.4167 0.0000 1.0000
vt 0.4722 0.0000 1.0000
vt 0.5278 0.0000 1.0000
vt 0.5833 0.0000 1.0000
vt 0.6389 0.0000 1.0000
vt 0.6944 0.0000 1.0000
vt 0.7500 1.0000 1.0000
vt 0.8056 1.0000 1.0000
vt 0.8611 1.0000 1.0000
vt 0.9167 1.0000 1.0000
vt 0.9722 1.0000 1.0000
vt 0.0278 1.0000 1.0000
vt 0.0833 1.0000 1.0000
vt 0.1389 1.0000 1.0000
vt 0.1944 1.0000 1.0000
vt 0.2500 1.0000 1.0000
vt 0.3056 1.0000 1.0000
vt 0.3611 1.0000 1.0000
vt 0.4167 1.0000 1.0000
vt 0.4722 1.0000 1.0000
vt 0.5278 1.0000 1.0000
vt 0.5833 1.0000 1.0000
vt 0.6389 1.0000 1.0000
vt 0.6944 1.0000 1.0000
vt 0.5000 1.0000 0.0000
vt -0.0278 0.0000 1.0000
vt -0.0278 0.0000 1.0000
vt -0.0278 1.0000 1.0000
vt -0.0278 0.0000 1.0000
vt -0.0278 1.0000 1.0000
# 43 texture coords

g Cylinder2
usemtl wire_141007058
s 1
f 1/1/1 3/3/2 2/2/3 
f 1/1/4 4/4/5 3/3/6 
f 1/1/7 5/5/8 4/4/9 
f 1/1/10 6/6/11 5/5/12 
f 1/1/13 7/7/14 6/39/15 
f 1/1/16 8/8/17 7/7/18 
f 1/1/19 9/9/20 8/8/21 
f 1/1/22 10/10/23 9/9/24 
f 1/1/25 11/11/26 10/10/27 
f 1/1/28 12/12/29 11/11/30 
f 1/1/31 13/13/32 12/12/33 
f 1/1/34 14/14/35 13/13/36 
f 1/1/37 15/15/38 14/14/39 
f 1/1/40 16/16/41 15/15/42 
f 1/1/43 17/17/44 16/16/45 
f 1/1/46 18/18/47 17/17/48 
f 1/1/49 19/19/50 18/18/51 
f 1/1/52 2/2/53 19/19/54 
s 8
f 2/2/55 21/21/56 20/20/57 
f 2/2/58 3/3/59 21/21/60 
f 3/3/61 22/22/62 21/21/63 
f 3/3/64 4/4/65 22/22/66 
f 4/4/67 23/23/68 22/22/69 
f 4/4/70 5/5/71 23/23/72 
f 5/5/73 24/24/74 23/23/75 
f 5/5/76 6/6/77 24/24/78 
f 6/40/79 25/25/80 24/41/81 
f 6/42/82 7/7/83 25/25/84 
f 7/7/85 26/26/86 25/25/87 
f 7/7/88 8/8/89 26/26/90 
f 8/8/91 27/27/92 26/26/93 
f 8/8/94 9/9/95 27/27/96 
f 9/9/97 28/28/98 27/27/99 
f 9/9/100 10/10/101 28/28/102 
f 10/10/103 29/29/104 28/28/105 
f 10/10/106 11/11/107 29/29/108 
f 11/11/109 30/30/110 29/29/111 
f 11/11/112 12/12/113 30/30/114 
f 12/12/115 31/31/116 30/30/117 
f 12/12/118 13/13/119 31/31/120 
f 13/13/121 32/32/122 31/31/123 
f 13/13/124 14/14/125 32/32/126 
f 14/14/127 33/33/128 32/32/129 
f 14/14/130 15/15/131 33/33/132 
f 15/15/133 34/34/134 33/33/135 
f 15/15/136 16/16/137 34/34/138 
f 16/16/139 35/35/140 34/34/141 
f 16/16/142 17/17/143 35/35/144 
f 17/17/145 36/36/146 35/35/147 
f 17/17/148 18/18/149 36/36/150 
f 18/18/151 37/37/152 36/36/153 
f 18/18/154 19/19/155 37/37/156 
f 19/19/157 20/20/158 37/37/159 
f 19/19/160 2/2/161 20/20/162 
s 1
f 38/38/163 20/20/164 21/21/165 
f 38/38/166 21/21/167 22/22/168 
f 38/38/169 22/22/170 23/23/171 
f 38/38/172 23/23/173 24/24/174 
f 38/38/175 24/43/176 25/25/177 
f 38/38/178 25/25/179 26/26/180 
f 38/38/181 26/26/182 27/27/183 
f 38/38/184 27/27/185 28/28/186 
f 38/38/187 28/28/188 29/29/189 
f 38/38/190 29/29/191 30/30/192 
f 38/38/193 30/30/194 31/31/195 
f 38/38/196 31/31/197 32/32/198 
f 38/38/199 32/32/200 33/33/201 
f 38/38/202 33/33/203 34/34/204 
f 38/38/205 34/34/206 35/35/207 
f 38/38/208 35/35/209 36/36/210 
f 38/38/211 36/36/212 37/37/213 
f 38/38/214 37/37/215 20/20/216 
# 72 faces

