# 3ds Max Wavefront OBJ Exporter v0.97b - (c)2007 guruware
# File Created: 26.08.2012 12:27:30

mtllib flag3.mtl

#
# object Cylinder003
#

v  -223.0801 -45.9733 15.1761
v  -223.3737 -44.8053 21.1741
v  -223.7167 -42.8560 20.4014
v  -223.9829 -41.2828 18.9985
v  -224.1402 -40.2753 17.1345
v  -224.1696 -39.9550 15.0343
v  -224.0676 -40.3607 12.9512
v  -223.8466 -41.4433 11.1365
v  -223.5330 -43.0723 9.8090
v  -223.1649 -45.0512 9.1289
v  -222.7865 -47.1413 9.1781
v  -222.4435 -49.0906 9.9508
v  -222.1774 -50.6638 11.3537
v  -222.0201 -51.6713 13.2177
v  -221.9906 -51.9916 15.3179
v  -222.0926 -51.5859 17.4010
v  -222.3137 -50.5033 19.2157
v  -222.6272 -48.8743 20.5432
v  -222.9953 -46.8954 21.2234
v  -828.1281 -154.4796 12.9245
v  -828.4711 -152.5303 12.1518
v  -828.7373 -150.9570 10.7489
v  -828.8945 -149.9496 8.8849
v  -828.9240 -149.6293 6.7847
v  -828.8220 -150.0350 4.7016
v  -828.6010 -151.1176 2.8869
v  -828.2875 -152.7466 1.5594
v  -827.9193 -154.7255 0.8792
v  -827.5409 -156.8156 0.9285
v  -827.1979 -158.7648 1.7011
v  -826.9318 -160.3381 3.1041
v  -826.7744 -161.3456 4.9681
v  -826.7450 -161.6658 7.0682
v  -826.8469 -161.2602 9.1513
v  -827.0680 -160.1776 10.9661
v  -827.3816 -158.5486 12.2936
v  -827.7498 -156.5697 12.9737
v  -827.8345 -155.6476 6.9265
# 38 vertices

vn 0.9839 0.1784 0.0134
vn 0.9839 0.1784 0.0134
vn 0.9839 0.1784 0.0134
vn 0.9839 0.1784 0.0134
vn 0.9839 0.1784 0.0134
vn 0.9839 0.1784 0.0134
vn 0.9839 0.1784 0.0134
vn 0.9839 0.1784 0.0134
vn 0.9839 0.1784 0.0134
vn 0.9839 0.1784 0.0134
vn 0.9839 0.1784 0.0134
vn 0.9839 0.1784 0.0134
vn 0.9839 0.1784 0.0134
vn 0.9839 0.1784 0.0134
vn 0.9839 0.1784 0.0134
vn 0.9839 0.1784 0.0134
vn 0.9839 0.1784 0.0134
vn 0.9839 0.1784 0.0134
vn 0.9839 0.1784 0.0134
vn 0.9839 0.1784 0.0134
vn 0.9839 0.1784 0.0134
vn 0.9839 0.1784 0.0134
vn 0.9839 0.1784 0.0134
vn 0.9839 0.1784 0.0134
vn 0.9839 0.1784 0.0134
vn 0.9839 0.1784 0.0134
vn 0.9839 0.1784 0.0134
vn 0.9839 0.1784 0.0134
vn 0.9839 0.1784 0.0134
vn 0.9839 0.1784 0.0134
vn 0.9839 0.1784 0.0134
vn 0.9839 0.1784 0.0134
vn 0.9839 0.1784 0.0134
vn 0.9839 0.1784 0.0134
vn 0.9839 0.1784 0.0134
vn 0.9839 0.1784 0.0134
vn 0.9839 0.1784 0.0134
vn 0.9839 0.1784 0.0134
vn 0.9839 0.1784 0.0134
vn 0.9839 0.1784 0.0134
vn 0.9839 0.1784 0.0134
vn 0.9839 0.1784 0.0134
vn 0.9839 0.1784 0.0134
vn 0.9839 0.1784 0.0134
vn 0.9839 0.1784 0.0134
vn 0.9839 0.1784 0.0134
vn 0.9839 0.1784 0.0134
vn 0.9839 0.1784 0.0134
vn 0.9839 0.1784 0.0134
vn 0.9839 0.1784 0.0134
vn 0.9839 0.1784 0.0134
vn 0.9839 0.1784 0.0134
vn 0.9839 0.1784 0.0134
vn 0.9839 0.1784 0.0134
vn -0.0480 0.1909 0.9804
vn -0.1041 0.5095 0.8541
vn -0.0480 0.1909 0.9804
vn -0.0480 0.1909 0.9804
vn -0.1041 0.5095 0.8541
vn -0.1041 0.5095 0.8541
vn -0.1041 0.5095 0.8541
vn -0.1476 0.7667 0.6248
vn -0.1041 0.5095 0.8541
vn -0.1041 0.5095 0.8541
vn -0.1476 0.7667 0.6248
vn -0.1476 0.7667 0.6248
vn -0.1476 0.7667 0.6248
vn -0.1733 0.9314 0.3201
vn -0.1476 0.7667 0.6248
vn -0.1476 0.7667 0.6248
vn -0.1733 0.9314 0.3201
vn -0.1733 0.9314 0.3201
vn -0.1733 0.9314 0.3201
vn -0.1781 0.9837 -0.0232
vn -0.1733 0.9314 0.3201
vn -0.1733 0.9314 0.3201
vn -0.1781 0.9837 -0.0232
vn -0.1781 0.9837 -0.0232
vn -0.1781 0.9837 -0.0232
vn -0.1614 0.9174 -0.3637
vn -0.1781 0.9837 -0.0232
vn -0.1781 0.9837 -0.0232
vn -0.1614 0.9174 -0.3637
vn -0.1614 0.9174 -0.3637
vn -0.1614 0.9174 -0.3637
vn -0.1253 0.7405 -0.6603
vn -0.1614 0.9174 -0.3637
vn -0.1614 0.9174 -0.3637
vn -0.1253 0.7405 -0.6603
vn -0.1253 0.7405 -0.6603
vn -0.1253 0.7405 -0.6603
vn -0.0740 0.4742 -0.8773
vn -0.1253 0.7405 -0.6603
vn -0.1253 0.7405 -0.6603
vn -0.0740 0.4742 -0.8773
vn -0.0740 0.4742 -0.8773
vn -0.0740 0.4742 -0.8773
vn -0.0139 0.1507 -0.9885
vn -0.0740 0.4742 -0.8773
vn -0.0740 0.4742 -0.8773
vn -0.0139 0.1507 -0.9885
vn -0.0139 0.1507 -0.9885
vn -0.0139 0.1507 -0.9885
vn 0.0480 -0.1909 -0.9804
vn -0.0139 0.1507 -0.9885
vn -0.0139 0.1507 -0.9885
vn 0.0480 -0.1909 -0.9804
vn 0.0480 -0.1909 -0.9804
vn 0.0480 -0.1909 -0.9804
vn 0.1041 -0.5095 -0.8541
vn 0.0480 -0.1909 -0.9804
vn 0.0480 -0.1909 -0.9804
vn 0.1041 -0.5095 -0.8541
vn 0.1041 -0.5095 -0.8541
vn 0.1041 -0.5095 -0.8541
vn 0.1476 -0.7667 -0.6248
vn 0.1041 -0.5095 -0.8541
vn 0.1041 -0.5095 -0.8541
vn 0.1476 -0.7667 -0.6248
vn 0.1476 -0.7667 -0.6248
vn 0.1476 -0.7667 -0.6248
vn 0.1733 -0.9314 -0.3201
vn 0.1476 -0.7667 -0.6248
vn 0.1476 -0.7667 -0.6248
vn 0.1733 -0.9314 -0.3201
vn 0.1733 -0.9314 -0.3201
vn 0.1733 -0.9314 -0.3201
vn 0.1781 -0.9837 0.0232
vn 0.1733 -0.9314 -0.3201
vn 0.1733 -0.9314 -0.3201
vn 0.1781 -0.9837 0.0232
vn 0.1781 -0.9837 0.0232
vn 0.1781 -0.9837 0.0232
vn 0.1614 -0.9174 0.3637
vn 0.1781 -0.9837 0.0232
vn 0.1781 -0.9837 0.0232
vn 0.1614 -0.9174 0.3637
vn 0.1614 -0.9174 0.3637
vn 0.1614 -0.9174 0.3637
vn 0.1253 -0.7405 0.6603
vn 0.1614 -0.9174 0.3637
vn 0.1614 -0.9174 0.3637
vn 0.1253 -0.7405 0.6603
vn 0.1253 -0.7405 0.6603
vn 0.1253 -0.7405 0.6603
vn 0.0740 -0.4742 0.8773
vn 0.1253 -0.7405 0.6603
vn 0.1253 -0.7405 0.6603
vn 0.0740 -0.4742 0.8773
vn 0.0740 -0.4742 0.8773
vn 0.0740 -0.4742 0.8773
vn 0.0139 -0.1507 0.9885
vn 0.0740 -0.4742 0.8773
vn 0.0740 -0.4742 0.8773
vn 0.0139 -0.1507 0.9885
vn 0.0139 -0.1507 0.9885
vn 0.0139 -0.1507 0.9885
vn -0.0480 0.1909 0.9804
vn 0.0139 -0.1507 0.9885
vn 0.0139 -0.1507 0.9885
vn -0.0480 0.1909 0.9804
vn -0.0480 0.1909 0.9804
vn -0.9839 -0.1784 -0.0134
vn -0.9839 -0.1784 -0.0134
vn -0.9839 -0.1784 -0.0134
vn -0.9839 -0.1784 -0.0134
vn -0.9839 -0.1784 -0.0134
vn -0.9839 -0.1784 -0.0134
vn -0.9839 -0.1784 -0.0134
vn -0.9839 -0.1784 -0.0134
vn -0.9839 -0.1784 -0.0134
vn -0.9839 -0.1784 -0.0134
vn -0.9839 -0.1784 -0.0134
vn -0.9839 -0.1784 -0.0134
vn -0.9839 -0.1784 -0.0134
vn -0.9839 -0.1784 -0.0134
vn -0.9839 -0.1784 -0.0134
vn -0.9839 -0.1784 -0.0134
vn -0.9839 -0.1784 -0.0134
vn -0.9839 -0.1784 -0.0134
vn -0.9839 -0.1784 -0.0134
vn -0.9839 -0.1784 -0.0134
vn -0.9839 -0.1784 -0.0134
vn -0.9839 -0.1784 -0.0134
vn -0.9839 -0.1784 -0.0134
vn -0.9839 -0.1784 -0.0134
vn -0.9839 -0.1784 -0.0134
vn -0.9839 -0.1784 -0.0134
vn -0.9839 -0.1784 -0.0134
vn -0.9839 -0.1784 -0.0134
vn -0.9839 -0.1784 -0.0134
vn -0.9839 -0.1784 -0.0134
vn -0.9839 -0.1784 -0.0134
vn -0.9839 -0.1784 -0.0134
vn -0.9839 -0.1784 -0.0134
vn -0.9839 -0.1784 -0.0134
vn -0.9839 -0.1784 -0.0134
vn -0.9839 -0.1784 -0.0134
vn -0.9839 -0.1784 -0.0134
vn -0.9839 -0.1784 -0.0134
vn -0.9839 -0.1784 -0.0134
vn -0.9839 -0.1784 -0.0134
vn -0.9839 -0.1784 -0.0134
vn -0.9839 -0.1784 -0.0134
vn -0.9839 -0.1784 -0.0134
vn -0.9839 -0.1784 -0.0134
vn -0.9839 -0.1784 -0.0134
vn -0.9839 -0.1784 -0.0134
vn -0.9839 -0.1784 -0.0134
vn -0.9839 -0.1784 -0.0134
vn -0.9839 -0.1784 -0.0134
vn -0.9839 -0.1784 -0.0134
vn -0.9839 -0.1784 -0.0134
vn -0.9839 -0.1784 -0.0134
vn -0.9839 -0.1784 -0.0134
vn -0.9839 -0.1784 -0.0134
# 216 vertex normals

vt 0.5000 0.0000 0.0000
vt 0.7500 0.0000 1.0000
vt 0.8056 0.0000 1.0000
vt 0.8611 0.0000 1.0000
vt 0.9167 0.0000 1.0000
vt 0.9722 0.0000 1.0000
vt 0.0278 0.0000 1.0000
vt 0.0833 0.0000 1.0000
vt 0.1389 0.0000 1.0000
vt 0.1944 0.0000 1.0000
vt 0.2500 0.0000 1.0000
vt 0.3056 0.0000 1.0000
vt 0.3611 0.0000 1.0000
vt 0.4167 0.0000 1.0000
vt 0.4722 0.0000 1.0000
vt 0.5278 0.0000 1.0000
vt 0.5833 0.0000 1.0000
vt 0.6389 0.0000 1.0000
vt 0.6944 0.0000 1.0000
vt 0.7500 1.0000 1.0000
vt 0.8056 1.0000 1.0000
vt 0.8611 1.0000 1.0000
vt 0.9167 1.0000 1.0000
vt 0.9722 1.0000 1.0000
vt 0.0278 1.0000 1.0000
vt 0.0833 1.0000 1.0000
vt 0.1389 1.0000 1.0000
vt 0.1944 1.0000 1.0000
vt 0.2500 1.0000 1.0000
vt 0.3056 1.0000 1.0000
vt 0.3611 1.0000 1.0000
vt 0.4167 1.0000 1.0000
vt 0.4722 1.0000 1.0000
vt 0.5278 1.0000 1.0000
vt 0.5833 1.0000 1.0000
vt 0.6389 1.0000 1.0000
vt 0.6944 1.0000 1.0000
vt 0.5000 1.0000 0.0000
vt -0.0278 0.0000 1.0000
vt -0.0278 0.0000 1.0000
vt -0.0278 1.0000 1.0000
vt -0.0278 0.0000 1.0000
vt -0.0278 1.0000 1.0000
# 43 texture coords

g Cylinder003
usemtl wire_141007058
s 1
f 1/1/1 3/3/2 2/2/3 
f 1/1/4 4/4/5 3/3/6 
f 1/1/7 5/5/8 4/4/9 
f 1/1/10 6/6/11 5/5/12 
f 1/1/13 7/7/14 6/39/15 
f 1/1/16 8/8/17 7/7/18 
f 1/1/19 9/9/20 8/8/21 
f 1/1/22 10/10/23 9/9/24 
f 1/1/25 11/11/26 10/10/27 
f 1/1/28 12/12/29 11/11/30 
f 1/1/31 13/13/32 12/12/33 
f 1/1/34 14/14/35 13/13/36 
f 1/1/37 15/15/38 14/14/39 
f 1/1/40 16/16/41 15/15/42 
f 1/1/43 17/17/44 16/16/45 
f 1/1/46 18/18/47 17/17/48 
f 1/1/49 19/19/50 18/18/51 
f 1/1/52 2/2/53 19/19/54 
s 8
f 2/2/55 21/21/56 20/20/57 
f 2/2/58 3/3/59 21/21/60 
f 3/3/61 22/22/62 21/21/63 
f 3/3/64 4/4/65 22/22/66 
f 4/4/67 23/23/68 22/22/69 
f 4/4/70 5/5/71 23/23/72 
f 5/5/73 24/24/74 23/23/75 
f 5/5/76 6/6/77 24/24/78 
f 6/40/79 25/25/80 24/41/81 
f 6/42/82 7/7/83 25/25/84 
f 7/7/85 26/26/86 25/25/87 
f 7/7/88 8/8/89 26/26/90 
f 8/8/91 27/27/92 26/26/93 
f 8/8/94 9/9/95 27/27/96 
f 9/9/97 28/28/98 27/27/99 
f 9/9/100 10/10/101 28/28/102 
f 10/10/103 29/29/104 28/28/105 
f 10/10/106 11/11/107 29/29/108 
f 11/11/109 30/30/110 29/29/111 
f 11/11/112 12/12/113 30/30/114 
f 12/12/115 31/31/116 30/30/117 
f 12/12/118 13/13/119 31/31/120 
f 13/13/121 32/32/122 31/31/123 
f 13/13/124 14/14/125 32/32/126 
f 14/14/127 33/33/128 32/32/129 
f 14/14/130 15/15/131 33/33/132 
f 15/15/133 34/34/134 33/33/135 
f 15/15/136 16/16/137 34/34/138 
f 16/16/139 35/35/140 34/34/141 
f 16/16/142 17/17/143 35/35/144 
f 17/17/145 36/36/146 35/35/147 
f 17/17/148 18/18/149 36/36/150 
f 18/18/151 37/37/152 36/36/153 
f 18/18/154 19/19/155 37/37/156 
f 19/19/157 20/20/158 37/37/159 
f 19/19/160 2/2/161 20/20/162 
s 1
f 38/38/163 20/20/164 21/21/165 
f 38/38/166 21/21/167 22/22/168 
f 38/38/169 22/22/170 23/23/171 
f 38/38/172 23/23/173 24/24/174 
f 38/38/175 24/43/176 25/25/177 
f 38/38/178 25/25/179 26/26/180 
f 38/38/181 26/26/182 27/27/183 
f 38/38/184 27/27/185 28/28/186 
f 38/38/187 28/28/188 29/29/189 
f 38/38/190 29/29/191 30/30/192 
f 38/38/193 30/30/194 31/31/195 
f 38/38/196 31/31/197 32/32/198 
f 38/38/199 32/32/200 33/33/201 
f 38/38/202 33/33/203 34/34/204 
f 38/38/205 34/34/206 35/35/207 
f 38/38/208 35/35/209 36/36/210 
f 38/38/211 36/36/212 37/37/213 
f 38/38/214 37/37/215 20/20/216 
# 72 faces

