# 3ds Max Wavefront OBJ Exporter v0.97b - (c)2007 guruware
# File Created: 26.08.2012 12:27:09

mtllib flag1.mtl

#
# object Cylinder004
#

v  -81.3100 160.7959 -159.5007
v  -86.8010 160.3568 -156.8395
v  -85.9350 161.8880 -155.6480
v  -84.5111 163.2875 -154.9213
v  -82.7011 164.3865 -154.7468
v  -80.7234 165.0524 -155.1458
v  -78.8163 165.2049 -156.0700
v  -77.2101 164.8256 -157.4081
v  -76.0983 163.9603 -158.9985
v  -75.6152 162.7133 -160.6495
v  -75.8189 161.2350 -162.1619
v  -76.6849 159.7038 -163.3534
v  -78.1088 158.3043 -164.0801
v  -79.9188 157.2054 -164.2546
v  -81.8966 156.5395 -163.8556
v  -83.8036 156.3870 -162.9314
v  -85.4099 156.7663 -161.5934
v  -86.5216 157.6316 -160.0029
v  -87.0048 158.8786 -158.3519
v  -307.5925 585.1836 -542.3232
v  -306.7264 586.7148 -541.1318
v  -305.3026 588.1143 -540.4050
v  -303.4926 589.2133 -540.2306
v  -301.5148 589.8792 -540.6295
v  -299.6078 590.0317 -541.5538
v  -298.0015 589.6525 -542.8918
v  -296.8898 588.7871 -544.4822
v  -296.4066 587.5402 -546.1332
v  -296.6103 586.0619 -547.6456
v  -297.4764 584.5306 -548.8371
v  -298.9002 583.1312 -549.5638
v  -300.7102 582.0322 -549.7383
v  -302.6880 581.3663 -549.3394
v  -304.5950 581.2137 -548.4151
v  -306.2013 581.5930 -547.0771
v  -307.3130 582.4584 -545.4867
v  -307.7962 583.7053 -543.8357
v  -302.1014 585.6227 -544.9844
# 38 vertices

vn 0.3592 -0.6911 0.6271
vn 0.3592 -0.6911 0.6271
vn 0.3592 -0.6911 0.6271
vn 0.3592 -0.6911 0.6271
vn 0.3592 -0.6911 0.6271
vn 0.3592 -0.6911 0.6271
vn 0.3592 -0.6911 0.6271
vn 0.3592 -0.6911 0.6271
vn 0.3592 -0.6911 0.6271
vn 0.3592 -0.6911 0.6271
vn 0.3592 -0.6911 0.6271
vn 0.3592 -0.6911 0.6271
vn 0.3592 -0.6911 0.6271
vn 0.3592 -0.6911 0.6271
vn 0.3592 -0.6911 0.6271
vn 0.3592 -0.6911 0.6271
vn 0.3592 -0.6911 0.6271
vn 0.3592 -0.6911 0.6271
vn 0.3592 -0.6911 0.6271
vn 0.3592 -0.6911 0.6271
vn 0.3592 -0.6911 0.6271
vn 0.3592 -0.6911 0.6271
vn 0.3592 -0.6911 0.6271
vn 0.3592 -0.6911 0.6271
vn 0.3592 -0.6911 0.6271
vn 0.3592 -0.6911 0.6271
vn 0.3592 -0.6911 0.6271
vn 0.3592 -0.6911 0.6271
vn 0.3592 -0.6911 0.6271
vn 0.3592 -0.6911 0.6271
vn 0.3592 -0.6911 0.6271
vn 0.3592 -0.6911 0.6271
vn 0.3592 -0.6911 0.6271
vn 0.3592 -0.6911 0.6271
vn 0.3592 -0.6911 0.6271
vn 0.3592 -0.6911 0.6271
vn 0.3592 -0.6911 0.6271
vn 0.3592 -0.6911 0.6271
vn 0.3592 -0.6911 0.6271
vn 0.3592 -0.6911 0.6271
vn 0.3592 -0.6911 0.6271
vn 0.3592 -0.6911 0.6271
vn 0.3592 -0.6911 0.6271
vn 0.3592 -0.6911 0.6271
vn 0.3592 -0.6911 0.6271
vn 0.3592 -0.6911 0.6271
vn 0.3592 -0.6911 0.6271
vn 0.3592 -0.6911 0.6271
vn 0.3592 -0.6911 0.6271
vn 0.3592 -0.6911 0.6271
vn 0.3592 -0.6911 0.6271
vn 0.3592 -0.6911 0.6271
vn 0.3592 -0.6911 0.6271
vn 0.3592 -0.6911 0.6271
vn -0.8976 -0.0718 0.4350
vn -0.7560 0.1785 0.6298
vn -0.8976 -0.0718 0.4350
vn -0.8976 -0.0718 0.4350
vn -0.7560 0.1785 0.6298
vn -0.7560 0.1785 0.6298
vn -0.7560 0.1785 0.6298
vn -0.5233 0.4073 0.7486
vn -0.7560 0.1785 0.6298
vn -0.7560 0.1785 0.6298
vn -0.5233 0.4073 0.7486
vn -0.5233 0.4073 0.7486
vn -0.5233 0.4073 0.7486
vn -0.2274 0.5869 0.7771
vn -0.5233 0.4073 0.7486
vn -0.5233 0.4073 0.7486
vn -0.2274 0.5869 0.7771
vn -0.2274 0.5869 0.7771
vn -0.2274 0.5869 0.7771
vn 0.0959 0.6958 0.7118
vn -0.2274 0.5869 0.7771
vn -0.2274 0.5869 0.7771
vn 0.0959 0.6958 0.7118
vn 0.0959 0.6958 0.7118
vn 0.0959 0.6958 0.7118
vn 0.4076 0.7207 0.5608
vn 0.0959 0.6958 0.7118
vn 0.0959 0.6958 0.7118
vn 0.4076 0.7207 0.5608
vn 0.4076 0.7207 0.5608
vn 0.4076 0.7207 0.5608
vn 0.6702 0.6587 0.3421
vn 0.4076 0.7207 0.5608
vn 0.4076 0.7207 0.5608
vn 0.6702 0.6587 0.3421
vn 0.6702 0.6587 0.3421
vn 0.6702 0.6587 0.3421
vn 0.8519 0.5172 0.0821
vn 0.6702 0.6587 0.3421
vn 0.6702 0.6587 0.3421
vn 0.8519 0.5172 0.0821
vn 0.8519 0.5172 0.0821
vn 0.8519 0.5172 0.0821
vn 0.9309 0.3134 -0.1878
vn 0.8519 0.5172 0.0821
vn 0.8519 0.5172 0.0821
vn 0.9309 0.3134 -0.1878
vn 0.9309 0.3134 -0.1878
vn 0.9309 0.3134 -0.1878
vn 0.8976 0.0718 -0.4350
vn 0.9309 0.3134 -0.1878
vn 0.9309 0.3134 -0.1878
vn 0.8976 0.0718 -0.4350
vn 0.8976 0.0718 -0.4350
vn 0.8976 0.0718 -0.4350
vn 0.7560 -0.1785 -0.6298
vn 0.8976 0.0718 -0.4350
vn 0.8976 0.0718 -0.4350
vn 0.7560 -0.1785 -0.6298
vn 0.7560 -0.1785 -0.6298
vn 0.7560 -0.1785 -0.6298
vn 0.5233 -0.4073 -0.7486
vn 0.7560 -0.1785 -0.6298
vn 0.7560 -0.1785 -0.6298
vn 0.5233 -0.4073 -0.7486
vn 0.5233 -0.4073 -0.7486
vn 0.5233 -0.4073 -0.7486
vn 0.2274 -0.5869 -0.7771
vn 0.5233 -0.4073 -0.7486
vn 0.5233 -0.4073 -0.7486
vn 0.2274 -0.5869 -0.7771
vn 0.2274 -0.5869 -0.7771
vn 0.2274 -0.5869 -0.7771
vn -0.0959 -0.6958 -0.7118
vn 0.2274 -0.5869 -0.7771
vn 0.2274 -0.5869 -0.7771
vn -0.0959 -0.6958 -0.7118
vn -0.0959 -0.6958 -0.7118
vn -0.0959 -0.6958 -0.7118
vn -0.4076 -0.7207 -0.5608
vn -0.0959 -0.6958 -0.7118
vn -0.0959 -0.6958 -0.7118
vn -0.4076 -0.7207 -0.5608
vn -0.4076 -0.7207 -0.5608
vn -0.4076 -0.7207 -0.5608
vn -0.6702 -0.6587 -0.3421
vn -0.4076 -0.7207 -0.5608
vn -0.4076 -0.7207 -0.5608
vn -0.6702 -0.6587 -0.3421
vn -0.6702 -0.6587 -0.3421
vn -0.6702 -0.6587 -0.3421
vn -0.8519 -0.5172 -0.0821
vn -0.6702 -0.6587 -0.3421
vn -0.6702 -0.6587 -0.3421
vn -0.8519 -0.5172 -0.0821
vn -0.8519 -0.5172 -0.0821
vn -0.8519 -0.5172 -0.0821
vn -0.9309 -0.3134 0.1878
vn -0.8519 -0.5172 -0.0821
vn -0.8519 -0.5172 -0.0821
vn -0.9309 -0.3134 0.1878
vn -0.9309 -0.3134 0.1878
vn -0.9309 -0.3134 0.1878
vn -0.8976 -0.0718 0.4350
vn -0.9309 -0.3134 0.1878
vn -0.9309 -0.3134 0.1878
vn -0.8976 -0.0718 0.4350
vn -0.8976 -0.0718 0.4350
vn -0.3592 0.6911 -0.6271
vn -0.3592 0.6911 -0.6271
vn -0.3592 0.6911 -0.6271
vn -0.3592 0.6911 -0.6271
vn -0.3592 0.6911 -0.6271
vn -0.3592 0.6911 -0.6271
vn -0.3592 0.6911 -0.6271
vn -0.3592 0.6911 -0.6271
vn -0.3592 0.6911 -0.6271
vn -0.3592 0.6911 -0.6271
vn -0.3592 0.6911 -0.6271
vn -0.3592 0.6911 -0.6271
vn -0.3592 0.6911 -0.6271
vn -0.3592 0.6911 -0.6271
vn -0.3592 0.6911 -0.6271
vn -0.3592 0.6911 -0.6271
vn -0.3592 0.6911 -0.6271
vn -0.3592 0.6911 -0.6271
vn -0.3592 0.6911 -0.6271
vn -0.3592 0.6911 -0.6271
vn -0.3592 0.6911 -0.6271
vn -0.3592 0.6911 -0.6271
vn -0.3592 0.6911 -0.6271
vn -0.3592 0.6911 -0.6271
vn -0.3592 0.6911 -0.6271
vn -0.3592 0.6911 -0.6271
vn -0.3592 0.6911 -0.6271
vn -0.3592 0.6911 -0.6271
vn -0.3592 0.6911 -0.6271
vn -0.3592 0.6911 -0.6271
vn -0.3592 0.6911 -0.6271
vn -0.3592 0.6911 -0.6271
vn -0.3592 0.6911 -0.6271
vn -0.3592 0.6911 -0.6271
vn -0.3592 0.6911 -0.6271
vn -0.3592 0.6911 -0.6271
vn -0.3592 0.6911 -0.6271
vn -0.3592 0.6911 -0.6271
vn -0.3592 0.6911 -0.6271
vn -0.3592 0.6911 -0.6271
vn -0.3592 0.6911 -0.6271
vn -0.3592 0.6911 -0.6271
vn -0.3592 0.6911 -0.6271
vn -0.3592 0.6911 -0.6271
vn -0.3592 0.6911 -0.6271
vn -0.3592 0.6911 -0.6271
vn -0.3592 0.6911 -0.6271
vn -0.3592 0.6911 -0.6271
vn -0.3592 0.6911 -0.6271
vn -0.3592 0.6911 -0.6271
vn -0.3592 0.6911 -0.6271
vn -0.3592 0.6911 -0.6271
vn -0.3592 0.6911 -0.6271
vn -0.3592 0.6911 -0.6271
# 216 vertex normals

vt 0.5000 0.0000 0.0000
vt 0.7500 0.0000 1.0000
vt 0.8056 0.0000 1.0000
vt 0.8611 0.0000 1.0000
vt 0.9167 0.0000 1.0000
vt 0.9722 0.0000 1.0000
vt 0.0278 0.0000 1.0000
vt 0.0833 0.0000 1.0000
vt 0.1389 0.0000 1.0000
vt 0.1944 0.0000 1.0000
vt 0.2500 0.0000 1.0000
vt 0.3056 0.0000 1.0000
vt 0.3611 0.0000 1.0000
vt 0.4167 0.0000 1.0000
vt 0.4722 0.0000 1.0000
vt 0.5278 0.0000 1.0000
vt 0.5833 0.0000 1.0000
vt 0.6389 0.0000 1.0000
vt 0.6944 0.0000 1.0000
vt 0.7500 1.0000 1.0000
vt 0.8056 1.0000 1.0000
vt 0.8611 1.0000 1.0000
vt 0.9167 1.0000 1.0000
vt 0.9722 1.0000 1.0000
vt 0.0278 1.0000 1.0000
vt 0.0833 1.0000 1.0000
vt 0.1389 1.0000 1.0000
vt 0.1944 1.0000 1.0000
vt 0.2500 1.0000 1.0000
vt 0.3056 1.0000 1.0000
vt 0.3611 1.0000 1.0000
vt 0.4167 1.0000 1.0000
vt 0.4722 1.0000 1.0000
vt 0.5278 1.0000 1.0000
vt 0.5833 1.0000 1.0000
vt 0.6389 1.0000 1.0000
vt 0.6944 1.0000 1.0000
vt 0.5000 1.0000 0.0000
vt -0.0278 0.0000 1.0000
vt -0.0278 0.0000 1.0000
vt -0.0278 1.0000 1.0000
vt -0.0278 0.0000 1.0000
vt -0.0278 1.0000 1.0000
# 43 texture coords

g Cylinder004
usemtl wire_141007058
s 1
f 1/1/1 3/3/2 2/2/3 
f 1/1/4 4/4/5 3/3/6 
f 1/1/7 5/5/8 4/4/9 
f 1/1/10 6/6/11 5/5/12 
f 1/1/13 7/7/14 6/39/15 
f 1/1/16 8/8/17 7/7/18 
f 1/1/19 9/9/20 8/8/21 
f 1/1/22 10/10/23 9/9/24 
f 1/1/25 11/11/26 10/10/27 
f 1/1/28 12/12/29 11/11/30 
f 1/1/31 13/13/32 12/12/33 
f 1/1/34 14/14/35 13/13/36 
f 1/1/37 15/15/38 14/14/39 
f 1/1/40 16/16/41 15/15/42 
f 1/1/43 17/17/44 16/16/45 
f 1/1/46 18/18/47 17/17/48 
f 1/1/49 19/19/50 18/18/51 
f 1/1/52 2/2/53 19/19/54 
s 8
f 2/2/55 21/21/56 20/20/57 
f 2/2/58 3/3/59 21/21/60 
f 3/3/61 22/22/62 21/21/63 
f 3/3/64 4/4/65 22/22/66 
f 4/4/67 23/23/68 22/22/69 
f 4/4/70 5/5/71 23/23/72 
f 5/5/73 24/24/74 23/23/75 
f 5/5/76 6/6/77 24/24/78 
f 6/40/79 25/25/80 24/41/81 
f 6/42/82 7/7/83 25/25/84 
f 7/7/85 26/26/86 25/25/87 
f 7/7/88 8/8/89 26/26/90 
f 8/8/91 27/27/92 26/26/93 
f 8/8/94 9/9/95 27/27/96 
f 9/9/97 28/28/98 27/27/99 
f 9/9/100 10/10/101 28/28/102 
f 10/10/103 29/29/104 28/28/105 
f 10/10/106 11/11/107 29/29/108 
f 11/11/109 30/30/110 29/29/111 
f 11/11/112 12/12/113 30/30/114 
f 12/12/115 31/31/116 30/30/117 
f 12/12/118 13/13/119 31/31/120 
f 13/13/121 32/32/122 31/31/123 
f 13/13/124 14/14/125 32/32/126 
f 14/14/127 33/33/128 32/32/129 
f 14/14/130 15/15/131 33/33/132 
f 15/15/133 34/34/134 33/33/135 
f 15/15/136 16/16/137 34/34/138 
f 16/16/139 35/35/140 34/34/141 
f 16/16/142 17/17/143 35/35/144 
f 17/17/145 36/36/146 35/35/147 
f 17/17/148 18/18/149 36/36/150 
f 18/18/151 37/37/152 36/36/153 
f 18/18/154 19/19/155 37/37/156 
f 19/19/157 20/20/158 37/37/159 
f 19/19/160 2/2/161 20/20/162 
s 1
f 38/38/163 20/20/164 21/21/165 
f 38/38/166 21/21/167 22/22/168 
f 38/38/169 22/22/170 23/23/171 
f 38/38/172 23/23/173 24/24/174 
f 38/38/175 24/43/176 25/25/177 
f 38/38/178 25/25/179 26/26/180 
f 38/38/181 26/26/182 27/27/183 
f 38/38/184 27/27/185 28/28/186 
f 38/38/187 28/28/188 29/29/189 
f 38/38/190 29/29/191 30/30/192 
f 38/38/193 30/30/194 31/31/195 
f 38/38/196 31/31/197 32/32/198 
f 38/38/199 32/32/200 33/33/201 
f 38/38/202 33/33/203 34/34/204 
f 38/38/205 34/34/206 35/35/207 
f 38/38/208 35/35/209 36/36/210 
f 38/38/211 36/36/212 37/37/213 
f 38/38/214 37/37/215 20/20/216 
# 72 faces

