# 3ds Max Wavefront OBJ Exporter v0.97b - (c)2007 guruware
# File Created: 26.08.2012 12:27:17

mtllib flag2.mtl

#
# object Cylinder001
#

v  160.4394 6.4655 189.0211
v  165.0738 6.5958 185.0295
v  164.6927 8.6773 185.2205
v  163.7986 10.4920 185.8699
v  162.4993 11.8210 186.8994
v  160.9516 12.5041 188.1847
v  159.3421 12.4588 189.5710
v  157.8649 11.6907 190.8909
v  156.6983 10.2923 191.9853
v  155.9829 8.4323 192.7222
v  155.8050 6.3351 193.0126
v  156.1861 4.2537 192.8216
v  157.0802 2.4390 192.1722
v  158.3795 1.1099 191.1428
v  159.9272 0.4269 189.8574
v  161.5367 0.4721 188.4712
v  163.0138 1.2403 187.1512
v  164.1805 2.6387 186.0569
v  164.8959 4.4986 185.3200
v  565.2185 37.1388 650.6213
v  564.8374 39.2202 650.8123
v  563.9434 41.0349 651.4616
v  562.6440 42.3639 652.4911
v  561.0963 43.0470 653.7764
v  559.4868 43.0017 655.1627
v  558.0097 42.2336 656.4826
v  556.8431 40.8352 657.5770
v  556.1277 38.9752 658.3138
v  555.9498 36.8781 658.6043
v  556.3309 34.7966 658.4133
v  557.2250 32.9819 657.7639
v  558.5243 31.6529 656.7345
v  560.0720 30.9698 655.4491
v  561.6815 31.0151 654.0629
v  563.1586 31.7832 652.7429
v  564.3253 33.1816 651.6486
v  565.0406 35.0416 650.9117
v  560.5842 37.0084 654.6128
# 38 vertices

vn -0.6510 -0.0497 -0.7575
vn -0.6510 -0.0497 -0.7575
vn -0.6510 -0.0497 -0.7575
vn -0.6510 -0.0497 -0.7575
vn -0.6510 -0.0497 -0.7575
vn -0.6510 -0.0497 -0.7575
vn -0.6510 -0.0497 -0.7575
vn -0.6510 -0.0497 -0.7575
vn -0.6510 -0.0497 -0.7575
vn -0.6510 -0.0497 -0.7575
vn -0.6510 -0.0497 -0.7575
vn -0.6510 -0.0497 -0.7575
vn -0.6510 -0.0497 -0.7575
vn -0.6510 -0.0497 -0.7575
vn -0.6510 -0.0497 -0.7575
vn -0.6510 -0.0497 -0.7575
vn -0.6510 -0.0497 -0.7575
vn -0.6510 -0.0497 -0.7575
vn -0.6510 -0.0497 -0.7575
vn -0.6510 -0.0497 -0.7575
vn -0.6510 -0.0497 -0.7575
vn -0.6510 -0.0497 -0.7575
vn -0.6510 -0.0497 -0.7575
vn -0.6510 -0.0497 -0.7575
vn -0.6510 -0.0497 -0.7575
vn -0.6510 -0.0497 -0.7575
vn -0.6510 -0.0497 -0.7575
vn -0.6510 -0.0497 -0.7575
vn -0.6510 -0.0497 -0.7575
vn -0.6510 -0.0497 -0.7575
vn -0.6510 -0.0497 -0.7575
vn -0.6510 -0.0497 -0.7575
vn -0.6510 -0.0497 -0.7575
vn -0.6510 -0.0497 -0.7575
vn -0.6510 -0.0497 -0.7575
vn -0.6510 -0.0497 -0.7575
vn -0.6510 -0.0497 -0.7575
vn -0.6510 -0.0497 -0.7575
vn -0.6510 -0.0497 -0.7575
vn -0.6510 -0.0497 -0.7575
vn -0.6510 -0.0497 -0.7575
vn -0.6510 -0.0497 -0.7575
vn -0.6510 -0.0497 -0.7575
vn -0.6510 -0.0497 -0.7575
vn -0.6510 -0.0497 -0.7575
vn -0.6510 -0.0497 -0.7575
vn -0.6510 -0.0497 -0.7575
vn -0.6510 -0.0497 -0.7575
vn -0.6510 -0.0497 -0.7575
vn -0.6510 -0.0497 -0.7575
vn -0.6510 -0.0497 -0.7575
vn -0.6510 -0.0497 -0.7575
vn -0.6510 -0.0497 -0.7575
vn -0.6510 -0.0497 -0.7575
vn 0.7575 0.0213 -0.6525
vn 0.6952 0.3615 -0.6212
vn 0.7575 0.0213 -0.6525
vn 0.7575 0.0213 -0.6525
vn 0.6952 0.3615 -0.6212
vn 0.6952 0.3615 -0.6212
vn 0.6952 0.3615 -0.6212
vn 0.5491 0.6582 -0.5151
vn 0.6952 0.3615 -0.6212
vn 0.6952 0.3615 -0.6212
vn 0.5491 0.6582 -0.5151
vn 0.5491 0.6582 -0.5151
vn 0.5491 0.6582 -0.5151
vn 0.3367 0.8754 -0.3468
vn 0.5491 0.6582 -0.5151
vn 0.5491 0.6582 -0.5151
vn 0.3367 0.8754 -0.3468
vn 0.3367 0.8754 -0.3468
vn 0.3367 0.8754 -0.3468
vn 0.0837 0.9871 -0.1367
vn 0.3367 0.8754 -0.3468
vn 0.3367 0.8754 -0.3468
vn 0.0837 0.9871 -0.1367
vn 0.0837 0.9871 -0.1367
vn 0.0837 0.9871 -0.1367
vn -0.1794 0.9797 0.0899
vn 0.0837 0.9871 -0.1367
vn 0.0837 0.9871 -0.1367
vn -0.1794 0.9797 0.0899
vn -0.1794 0.9797 0.0899
vn -0.1794 0.9797 0.0899
vn -0.4208 0.8541 0.3056
vn -0.1794 0.9797 0.0899
vn -0.1794 0.9797 0.0899
vn -0.4208 0.8541 0.3056
vn -0.4208 0.8541 0.3056
vn -0.4208 0.8541 0.3056
vn -0.6115 0.6255 0.4845
vn -0.4208 0.8541 0.3056
vn -0.4208 0.8541 0.3056
vn -0.6115 0.6255 0.4845
vn -0.6115 0.6255 0.4845
vn -0.6115 0.6255 0.4845
vn -0.7285 0.3215 0.6050
vn -0.6115 0.6255 0.4845
vn -0.6115 0.6255 0.4845
vn -0.7285 0.3215 0.6050
vn -0.7285 0.3215 0.6050
vn -0.7285 0.3215 0.6050
vn -0.7575 -0.0213 0.6525
vn -0.7285 0.3215 0.6050
vn -0.7285 0.3215 0.6050
vn -0.7575 -0.0213 0.6525
vn -0.7575 -0.0213 0.6525
vn -0.7575 -0.0213 0.6525
vn -0.6952 -0.3615 0.6212
vn -0.7575 -0.0213 0.6525
vn -0.7575 -0.0213 0.6525
vn -0.6952 -0.3615 0.6212
vn -0.6952 -0.3615 0.6212
vn -0.6952 -0.3615 0.6212
vn -0.5491 -0.6582 0.5151
vn -0.6952 -0.3615 0.6212
vn -0.6952 -0.3615 0.6212
vn -0.5491 -0.6582 0.5151
vn -0.5491 -0.6582 0.5151
vn -0.5491 -0.6582 0.5151
vn -0.3367 -0.8754 0.3468
vn -0.5491 -0.6582 0.5151
vn -0.5491 -0.6582 0.5151
vn -0.3367 -0.8754 0.3468
vn -0.3367 -0.8754 0.3468
vn -0.3367 -0.8754 0.3468
vn -0.0837 -0.9871 0.1367
vn -0.3367 -0.8754 0.3468
vn -0.3367 -0.8754 0.3468
vn -0.0837 -0.9871 0.1367
vn -0.0837 -0.9871 0.1367
vn -0.0837 -0.9871 0.1367
vn 0.1794 -0.9797 -0.0899
vn -0.0837 -0.9871 0.1367
vn -0.0837 -0.9871 0.1367
vn 0.1794 -0.9797 -0.0899
vn 0.1794 -0.9797 -0.0899
vn 0.1794 -0.9797 -0.0899
vn 0.4208 -0.8541 -0.3056
vn 0.1794 -0.9797 -0.0899
vn 0.1794 -0.9797 -0.0899
vn 0.4208 -0.8541 -0.3056
vn 0.4208 -0.8541 -0.3056
vn 0.4208 -0.8541 -0.3056
vn 0.6115 -0.6255 -0.4845
vn 0.4208 -0.8541 -0.3056
vn 0.4208 -0.8541 -0.3056
vn 0.6115 -0.6255 -0.4845
vn 0.6115 -0.6255 -0.4845
vn 0.6115 -0.6255 -0.4845
vn 0.7285 -0.3215 -0.6050
vn 0.6115 -0.6255 -0.4845
vn 0.6115 -0.6255 -0.4845
vn 0.7285 -0.3215 -0.6050
vn 0.7285 -0.3215 -0.6050
vn 0.7285 -0.3215 -0.6050
vn 0.7575 0.0213 -0.6525
vn 0.7285 -0.3215 -0.6050
vn 0.7285 -0.3215 -0.6050
vn 0.7575 0.0213 -0.6525
vn 0.7575 0.0213 -0.6525
vn 0.6510 0.0497 0.7575
vn 0.6510 0.0497 0.7575
vn 0.6510 0.0497 0.7575
vn 0.6510 0.0497 0.7575
vn 0.6510 0.0497 0.7575
vn 0.6510 0.0497 0.7575
vn 0.6510 0.0497 0.7575
vn 0.6510 0.0497 0.7575
vn 0.6510 0.0497 0.7575
vn 0.6510 0.0497 0.7575
vn 0.6510 0.0497 0.7575
vn 0.6510 0.0497 0.7575
vn 0.6510 0.0497 0.7575
vn 0.6510 0.0497 0.7575
vn 0.6510 0.0497 0.7575
vn 0.6510 0.0497 0.7575
vn 0.6510 0.0497 0.7575
vn 0.6510 0.0497 0.7575
vn 0.6510 0.0497 0.7575
vn 0.6510 0.0497 0.7575
vn 0.6510 0.0497 0.7575
vn 0.6510 0.0497 0.7575
vn 0.6510 0.0497 0.7575
vn 0.6510 0.0497 0.7575
vn 0.6510 0.0497 0.7575
vn 0.6510 0.0497 0.7575
vn 0.6510 0.0497 0.7575
vn 0.6510 0.0497 0.7575
vn 0.6510 0.0497 0.7575
vn 0.6510 0.0497 0.7575
vn 0.6510 0.0497 0.7575
vn 0.6510 0.0497 0.7575
vn 0.6510 0.0497 0.7575
vn 0.6510 0.0497 0.7575
vn 0.6510 0.0497 0.7575
vn 0.6510 0.0497 0.7575
vn 0.6510 0.0497 0.7575
vn 0.6510 0.0497 0.7575
vn 0.6510 0.0497 0.7575
vn 0.6510 0.0497 0.7575
vn 0.6510 0.0497 0.7575
vn 0.6510 0.0497 0.7575
vn 0.6510 0.0497 0.7575
vn 0.6510 0.0497 0.7575
vn 0.6510 0.0497 0.7575
vn 0.6510 0.0497 0.7575
vn 0.6510 0.0497 0.7575
vn 0.6510 0.0497 0.7575
vn 0.6510 0.0497 0.7575
vn 0.6510 0.0497 0.7575
vn 0.6510 0.0497 0.7575
vn 0.6510 0.0497 0.7575
vn 0.6510 0.0497 0.7575
vn 0.6510 0.0497 0.7575
# 216 vertex normals

vt 0.5000 0.0000 0.0000
vt 0.7500 0.0000 1.0000
vt 0.8056 0.0000 1.0000
vt 0.8611 0.0000 1.0000
vt 0.9167 0.0000 1.0000
vt 0.9722 0.0000 1.0000
vt 0.0278 0.0000 1.0000
vt 0.0833 0.0000 1.0000
vt 0.1389 0.0000 1.0000
vt 0.1944 0.0000 1.0000
vt 0.2500 0.0000 1.0000
vt 0.3056 0.0000 1.0000
vt 0.3611 0.0000 1.0000
vt 0.4167 0.0000 1.0000
vt 0.4722 0.0000 1.0000
vt 0.5278 0.0000 1.0000
vt 0.5833 0.0000 1.0000
vt 0.6389 0.0000 1.0000
vt 0.6944 0.0000 1.0000
vt 0.7500 1.0000 1.0000
vt 0.8056 1.0000 1.0000
vt 0.8611 1.0000 1.0000
vt 0.9167 1.0000 1.0000
vt 0.9722 1.0000 1.0000
vt 0.0278 1.0000 1.0000
vt 0.0833 1.0000 1.0000
vt 0.1389 1.0000 1.0000
vt 0.1944 1.0000 1.0000
vt 0.2500 1.0000 1.0000
vt 0.3056 1.0000 1.0000
vt 0.3611 1.0000 1.0000
vt 0.4167 1.0000 1.0000
vt 0.4722 1.0000 1.0000
vt 0.5278 1.0000 1.0000
vt 0.5833 1.0000 1.0000
vt 0.6389 1.0000 1.0000
vt 0.6944 1.0000 1.0000
vt 0.5000 1.0000 0.0000
vt -0.0278 0.0000 1.0000
vt -0.0278 0.0000 1.0000
vt -0.0278 1.0000 1.0000
vt -0.0278 0.0000 1.0000
vt -0.0278 1.0000 1.0000
# 43 texture coords

g Cylinder001
usemtl wire_141007058
s 1
f 1/1/1 3/3/2 2/2/3 
f 1/1/4 4/4/5 3/3/6 
f 1/1/7 5/5/8 4/4/9 
f 1/1/10 6/6/11 5/5/12 
f 1/1/13 7/7/14 6/39/15 
f 1/1/16 8/8/17 7/7/18 
f 1/1/19 9/9/20 8/8/21 
f 1/1/22 10/10/23 9/9/24 
f 1/1/25 11/11/26 10/10/27 
f 1/1/28 12/12/29 11/11/30 
f 1/1/31 13/13/32 12/12/33 
f 1/1/34 14/14/35 13/13/36 
f 1/1/37 15/15/38 14/14/39 
f 1/1/40 16/16/41 15/15/42 
f 1/1/43 17/17/44 16/16/45 
f 1/1/46 18/18/47 17/17/48 
f 1/1/49 19/19/50 18/18/51 
f 1/1/52 2/2/53 19/19/54 
s 8
f 2/2/55 21/21/56 20/20/57 
f 2/2/58 3/3/59 21/21/60 
f 3/3/61 22/22/62 21/21/63 
f 3/3/64 4/4/65 22/22/66 
f 4/4/67 23/23/68 22/22/69 
f 4/4/70 5/5/71 23/23/72 
f 5/5/73 24/24/74 23/23/75 
f 5/5/76 6/6/77 24/24/78 
f 6/40/79 25/25/80 24/41/81 
f 6/42/82 7/7/83 25/25/84 
f 7/7/85 26/26/86 25/25/87 
f 7/7/88 8/8/89 26/26/90 
f 8/8/91 27/27/92 26/26/93 
f 8/8/94 9/9/95 27/27/96 
f 9/9/97 28/28/98 27/27/99 
f 9/9/100 10/10/101 28/28/102 
f 10/10/103 29/29/104 28/28/105 
f 10/10/106 11/11/107 29/29/108 
f 11/11/109 30/30/110 29/29/111 
f 11/11/112 12/12/113 30/30/114 
f 12/12/115 31/31/116 30/30/117 
f 12/12/118 13/13/119 31/31/120 
f 13/13/121 32/32/122 31/31/123 
f 13/13/124 14/14/125 32/32/126 
f 14/14/127 33/33/128 32/32/129 
f 14/14/130 15/15/131 33/33/132 
f 15/15/133 34/34/134 33/33/135 
f 15/15/136 16/16/137 34/34/138 
f 16/16/139 35/35/140 34/34/141 
f 16/16/142 17/17/143 35/35/144 
f 17/17/145 36/36/146 35/35/147 
f 17/17/148 18/18/149 36/36/150 
f 18/18/151 37/37/152 36/36/153 
f 18/18/154 19/19/155 37/37/156 
f 19/19/157 20/20/158 37/37/159 
f 19/19/160 2/2/161 20/20/162 
s 1
f 38/38/163 20/20/164 21/21/165 
f 38/38/166 21/21/167 22/22/168 
f 38/38/169 22/22/170 23/23/171 
f 38/38/172 23/23/173 24/24/174 
f 38/38/175 24/43/176 25/25/177 
f 38/38/178 25/25/179 26/26/180 
f 38/38/181 26/26/182 27/27/183 
f 38/38/184 27/27/185 28/28/186 
f 38/38/187 28/28/188 29/29/189 
f 38/38/190 29/29/191 30/30/192 
f 38/38/193 30/30/194 31/31/195 
f 38/38/196 31/31/197 32/32/198 
f 38/38/199 32/32/200 33/33/201 
f 38/38/202 33/33/203 34/34/204 
f 38/38/205 34/34/206 35/35/207 
f 38/38/208 35/35/209 36/36/210 
f 38/38/211 36/36/212 37/37/213 
f 38/38/214 37/37/215 20/20/216 
# 72 faces

