# 3ds Max Wavefront OBJ Exporter v0.97b - (c)2007 guruware
# File Created: 01.06.2012 19:30:56

#
# object Plane001
#

v  -981.5328 0.0000 784.0646
v  981.5328 0.0000 784.0646
v  -981.5328 0.0000 -784.0646
v  981.5328 0.0000 -784.0646
# 4 vertices

vn 0.0000 1.0000 -0.0000
vn 0.0000 1.0000 -0.0000
vn 0.0000 1.0000 -0.0000
vn 0.0000 1.0000 -0.0000
vn 0.0000 1.0000 -0.0000
vn 0.0000 1.0000 -0.0000
# 6 vertex normals

vt 0.0000 0.0000 0.0000
vt 1.0000 0.0000 0.0000
vt 0.0000 1.0000 0.0000
vt 1.0000 1.0000 0.0000
# 4 texture coords

g Plane001
f 1/1/1 2/2/2 4/4/3 
f 4/4/4 3/3/5 1/1/6 
# 2 faces

